<svg version="1.1" xmlns="http://www.w3.org/2000/svg" width="24" height="24" viewBox="0 0 512 512">
<path d="M0 0 C4.53906977 -0.17678947 9.04886102 -0.09593374 13.58398438 0.109375 C14.64423828 0.15578125 15.70449219 0.2021875 16.796875 0.25 C60.19231559 2.2954198 102.95975244 9.69374371 142.58398438 28.109375 C143.30134766 28.44050293 144.01871094 28.77163086 144.7578125 29.11279297 C164.58309507 38.36302553 182.26925896 50.24511083 198.34570312 65.05859375 C200.44695056 66.98382046 202.59717743 68.83015803 204.77148438 70.671875 C208.77943647 74.17583312 212.17258141 78.03250328 215.58398438 82.109375 C216.34582031 82.98335938 217.10765625 83.85734375 217.89257812 84.7578125 C236.19294448 106.05589878 259.70509916 139.92440681 257.58398438 169.109375 C256.42821236 175.68160398 253.88425774 180.72579188 249.98632812 186.1015625 C248.63270437 188.03961992 247.58558549 189.97198698 246.58398438 192.109375 C247.091875 192.54765625 247.59976562 192.9859375 248.12304688 193.4375 C255.26451157 200.01727646 261.07763384 208.74459371 261.76098633 218.68383789 C261.82785983 221.84660832 261.86891295 225.00851335 261.89648438 228.171875 C261.92548828 229.25404297 261.95449219 230.33621094 261.984375 231.45117188 C262.07609413 243.2123861 258.77166574 252.56640963 250.58398438 261.109375 C244.9087722 266.34883048 237.63197281 272.109375 229.58398438 272.109375 C229.91398437 286.629375 230.24398438 301.149375 230.58398438 316.109375 C233.88398438 317.429375 237.18398438 318.749375 240.58398438 320.109375 C250.61029142 325.2603721 256.8441561 333.59362131 260.58398438 344.109375 C263.92458018 355.41398825 263.69340369 372.24332601 258.12304688 382.74609375 C257.61515625 383.52597656 257.10726563 384.30585938 256.58398438 385.109375 C255.82214844 386.32560547 255.82214844 386.32560547 255.04492188 387.56640625 C248.71498675 396.61131354 240.25513111 401.72539541 229.58398438 404.109375 C229.63039063 404.96015625 229.67679687 405.8109375 229.72460938 406.6875 C230.47292211 431.8094276 222.1407517 455.29584531 204.90869141 473.76171875 C181.22637493 498.33422727 146.27095802 511.24593702 112.46455264 512.16712737 C106.17982505 512.26818072 99.89449264 512.25641443 93.60913086 512.25463867 C91.48895713 512.25763462 89.36878393 512.26103816 87.24861145 512.26481628 C81.51269706 512.27361746 75.7767976 512.2759928 70.0408771 512.27663207 C66.44910005 512.27734494 62.85732674 512.27948376 59.26555061 512.28212929 C46.71145514 512.29137085 34.15737025 512.29546579 21.60327148 512.29467773 C9.93987227 512.29407771 -1.72348057 512.30461778 -13.38686806 512.3204214 C-23.43145162 512.33354179 -33.47602012 512.33885973 -43.52061218 512.33822232 C-49.50588516 512.3379686 -55.49111693 512.34074989 -61.4763813 512.35140038 C-67.11287648 512.36115703 -72.7492917 512.36110922 -78.38578987 512.35388374 C-80.44070046 512.35284714 -82.49561623 512.35514497 -84.55051804 512.3612442 C-125.06158514 512.47358444 -163.08159781 503.1630747 -193.22851562 474.734375 C-209.52667513 457.68027118 -218.68726374 434.76041213 -218.47851562 411.171875 C-218.47400391 410.48802734 -218.46949219 409.80417969 -218.46484375 409.09960938 C-218.45321123 407.43615896 -218.43528257 405.7727545 -218.41601562 404.109375 C-219.01027344 403.985625 -219.60453125 403.861875 -220.21679688 403.734375 C-229.90391501 401.32389459 -238.5995926 395.75616885 -244.13476562 387.30859375 C-244.55757812 386.58285156 -244.98039063 385.85710937 -245.41601562 385.109375 C-245.90070313 384.35269531 -246.38539063 383.59601563 -246.88476562 382.81640625 C-250.72937416 375.58640632 -250.90877998 368.61197941 -250.97851562 360.546875 C-250.99317871 359.49443604 -251.0078418 358.44199707 -251.02294922 357.35766602 C-250.89612949 347.57191965 -248.43192592 338.94828842 -242.41601562 331.109375 C-241.33320313 329.624375 -241.33320313 329.624375 -240.22851562 328.109375 C-234.48747195 321.42026906 -227.70512612 318.87241183 -219.41601562 316.109375 C-219.08601563 301.589375 -218.75601563 287.069375 -218.41601562 272.109375 C-220.39601562 271.779375 -222.37601563 271.449375 -224.41601562 271.109375 C-235.43540341 266.43828316 -243.40649624 259.13164671 -248.27661133 248.17285156 C-250.66263814 241.68112503 -250.89915055 235.60450608 -250.85351562 228.734375 C-250.88348633 227.14496094 -250.88348633 227.14496094 -250.9140625 225.5234375 C-250.90619121 212.67749065 -246.46217696 203.15689839 -237.54101562 194.109375 C-236.48914063 193.119375 -236.48914063 193.119375 -235.41601562 192.109375 C-236.80811826 189.14532872 -238.4495921 186.58155443 -240.35351562 183.921875 C-246.0348062 175.37910311 -247.56585346 167.34293176 -246.41601562 157.109375 C-240.12152472 127.66514534 -220.49435223 99.88447245 -200.41601562 78.109375 C-199.66320312 77.2534375 -198.91039062 76.3975 -198.13476562 75.515625 C-193.52466141 70.27399966 -188.83203935 65.51102639 -183.41601562 61.109375 C-181.88847656 59.86027344 -181.88847656 59.86027344 -180.33007812 58.5859375 C-135.55231365 22.43732178 -135.55231365 22.43732178 -115.41601562 24.109375 C-114.42601562 24.769375 -113.43601563 25.429375 -112.41601562 26.109375 C-112.41601562 26.769375 -112.41601562 27.429375 -112.41601562 28.109375 C-109.63165223 27.28761153 -106.86848004 26.42978603 -104.10351562 25.546875 C-103.31783203 25.31935547 -102.53214844 25.09183594 -101.72265625 24.85742188 C-97.30633448 23.41037176 -95.8153108 22.8949165 -93.62304688 18.58203125 C-93.02556641 16.86306641 -93.02556641 16.86306641 -92.41601562 15.109375 C-89.53746945 12.42552674 -86.90447307 11.50178384 -83.10351562 10.64453125 C-82.04293945 10.40379883 -80.98236328 10.16306641 -79.88964844 9.91503906 C-78.1702002 9.54717285 -78.1702002 9.54717285 -76.41601562 9.171875 C-74.61535645 8.78273926 -74.61535645 8.78273926 -72.77832031 8.38574219 C-48.65778351 3.32061775 -24.56556127 1.11210302 0 0 Z " fill="#030200" transform="translate(250.416015625,-0.109375)"/>
<path d="M0 0 C0.86564575 0.00126892 1.7312915 0.00253784 2.62316895 0.00384521 C36.38671988 0.09789627 70.23409622 3.55182241 102.4375 14.1875 C104.04811187 14.69161464 105.65878979 15.19551832 107.26953125 15.69921875 C138.46750589 25.75797247 166.91258095 42.40182554 190.4375 65.1875 C191.23583252 65.94716064 191.23583252 65.94716064 192.05029297 66.72216797 C212.15203308 85.88044125 238.75388528 118.80375814 240 147.5 C239.70263156 153.59203446 238.20290442 158.22510787 234.01171875 162.71484375 C228.69946209 167.45057643 223.86379801 168.48578687 216.94172955 168.44476891 C216.19209593 168.44827498 215.44246231 168.45178105 214.67011252 168.45539337 C212.15001183 168.46472135 209.63014152 168.45978048 207.11003113 168.45492554 C205.28825371 168.45866109 203.4664779 168.46326223 201.64470464 168.46865618 C196.63193235 168.48091329 191.61922667 168.48062253 186.60644281 168.47826743 C181.20277204 168.47785995 175.79912281 168.48889183 170.39546204 168.49838257 C159.8062019 168.51500834 149.21696404 168.52049282 138.62769195 168.52160732 C130.02184972 168.52255704 121.41601485 168.5266635 112.81017494 168.53300858 C88.4210497 168.55062518 64.03194208 168.55984677 39.64281043 168.55834763 C38.32748719 168.55826772 37.01216394 168.5581878 35.65698242 168.55810547 C34.34005668 168.55802371 33.02313095 168.55794195 31.66629837 168.55785771 C10.31951735 168.55704466 -11.02718333 168.576186 -32.37394551 168.6043822 C-54.28282789 168.63309298 -76.19167585 168.6469235 -98.10057753 168.64519465 C-110.4047113 168.64453013 -122.70877111 168.65004957 -135.01288795 168.67155075 C-145.48832571 168.68973876 -155.963656 168.69412945 -166.43910269 168.6805319 C-171.78488217 168.67399029 -177.13045535 168.67392817 -182.47621536 168.6912384 C-187.36969612 168.70692129 -192.26280617 168.70415445 -197.15627762 168.68667014 C-198.92678532 168.68358969 -200.69732036 168.68727181 -202.46779583 168.69839029 C-220.66735572 168.805115 -220.66735572 168.805115 -227.05924445 162.77561319 C-231.9819227 157.32662162 -233.1978018 151.89791769 -233.06640625 144.75 C-232.02775334 137.40696545 -228.70714006 130.84187689 -225.5625 124.1875 C-225.24716309 123.50606934 -224.93182617 122.82463867 -224.60693359 122.12255859 C-216.72105169 105.18206033 -206.74720251 90.32956906 -194.5625 76.1875 C-194.09247559 75.64158203 -193.62245117 75.09566406 -193.13818359 74.53320312 C-187.98073157 68.59511317 -182.61233195 63.20177513 -176.5625 58.1875 C-175.69238281 57.42953125 -174.82226562 56.6715625 -173.92578125 55.890625 C-159.41463714 43.41375343 -142.80486796 32.98030372 -125.28125 25.25390625 C-118.83125476 22.84037142 -118.83125476 22.84037142 -114.5703125 17.9375 C-114.27958027 16.38692813 -113.99666694 14.83486401 -113.72265625 13.28125 C-111.57510276 9.40553058 -107.01198103 8.67213232 -103.00610352 7.41943359 C-99.67080304 6.48675345 -97.90860776 6.07213075 -94.5625 7.1875 C-94.005625 7.88875 -93.44875 8.59 -92.875 9.3125 C-90.5831373 11.60784467 -90.5831373 11.60784467 -86.90869141 10.9230957 C-82.78199015 10.29387256 -78.75256985 9.32547408 -74.7109375 8.29296875 C-66.36928298 6.25150322 -58.0126737 4.92284903 -49.50341797 3.80444336 C-47.16642226 3.49722919 -44.83124515 3.1783288 -42.49609375 2.85742188 C-38.18834944 2.27061185 -33.87726786 1.72032285 -29.5625 1.1875 C-28.60706299 1.06898682 -27.65162598 0.95047363 -26.66723633 0.82836914 C-17.81078811 -0.12359926 -8.89671482 -0.0133929 0 0 Z " fill="#FD9637" transform="translate(252.5625,15.8125)"/>
<path d="M0 0 C16.5 0 33 0 50 0 C50.66 4.29 51.32 8.58 52 13 C54.95753936 20.96260598 59.91254443 25.59561437 67.1875 29.875 C74.65676707 32.86270683 82.60461949 33.16078385 90.1875 30.375 C99.20009129 26.30662023 103.287661 21.12174726 107 12 C107.66 8.04 108.32 4.08 109 0 C210.97 0 312.94 0 418 0 C418 24.02026721 411.4006143 43.91935831 394.875 61.6875 C384.7936377 71.22628898 372.66301676 77.60595869 360 83 C358.64261719 83.59941406 358.64261719 83.59941406 357.2578125 84.2109375 C351.01918625 86.86185536 344.63355054 88.63117211 338 90 C337.28400949 90.16354729 336.56801899 90.32709457 335.8303318 90.49559784 C325.13417761 92.63923213 314.33639757 92.31191727 303.47802734 92.32226562 C301.20319807 92.33153663 298.92837187 92.3415879 296.65354919 92.35235596 C290.49775278 92.37847608 284.34199987 92.39146997 278.18615675 92.40037727 C274.3277997 92.40626241 270.46945423 92.41447659 266.61110306 92.42338562 C255.88772356 92.44758475 245.16435933 92.46835235 234.44095421 92.4751358 C233.75652763 92.47557494 233.07210105 92.47601407 232.36693428 92.47646651 C231.68104064 92.47690306 230.99514701 92.47733962 230.28846872 92.4777894 C228.8990182 92.47867627 227.50956769 92.4795694 226.12011719 92.48046875 C225.08633461 92.48113304 225.08633461 92.48113304 224.03166755 92.48181075 C212.89834855 92.4896839 201.76529317 92.52452933 190.63207571 92.57118779 C179.14836264 92.61891851 167.6648186 92.64304012 156.18100131 92.64587164 C149.75492583 92.64795239 143.32922241 92.6594345 136.9032402 92.69551086 C130.84383834 92.72886883 124.78508024 92.73259533 118.72561836 92.71523285 C116.52408286 92.71371271 114.32250985 92.72209866 112.12106514 92.74214935 C90.0752062 92.93086743 68.72955298 89.11950077 49 79 C47.53820312 78.29423828 47.53820312 78.29423828 46.046875 77.57421875 C26.18808373 67.50297461 11.11488839 51.2046083 4 30 C1.02652587 19.64281489 0 11.04219296 0 0 Z " fill="#FD9637" transform="translate(47,404)"/>
<path d="M0 0 C0.74766577 -0.00465992 1.49533154 -0.00931984 2.26565385 -0.01412097 C4.76715306 -0.02605727 7.26810776 -0.01668096 9.76961136 -0.00736332 C11.58272864 -0.01153685 13.39584332 -0.01701447 15.20895314 -0.02368313 C20.18864544 -0.03815422 25.16817247 -0.03388776 30.14787388 -0.02651632 C35.51953377 -0.021791 40.89115757 -0.03428897 46.26280594 -0.04453373 C56.78596866 -0.06174038 67.30907171 -0.06255775 77.83224484 -0.05732083 C86.38605224 -0.05328085 94.93984198 -0.05472064 103.49364853 -0.06006908 C105.31920038 -0.06119172 105.31920038 -0.06119172 107.18163206 -0.06233703 C109.65399828 -0.0638685 112.1263645 -0.06540685 114.59873071 -0.066952 C137.79136702 -0.08068415 160.9839696 -0.07523464 184.17660514 -0.06376678 C205.39190229 -0.05383684 226.6071122 -0.0667697 247.82239589 -0.09070098 C269.60592875 -0.11508807 291.38942096 -0.1247006 313.1729672 -0.11804825 C325.40282684 -0.11455476 337.6326194 -0.11679655 349.86246872 -0.13429928 C360.27519597 -0.14901647 370.68780893 -0.14966309 381.10053393 -0.13222837 C386.41226584 -0.12371151 391.72379353 -0.12158566 397.03551483 -0.13687992 C401.90132357 -0.15071662 406.76675293 -0.14597673 411.63253966 -0.12664068 C413.38957935 -0.12287722 415.14664935 -0.12581262 416.90366206 -0.13625234 C427.91564248 -0.19701208 438.54273402 -0.11726798 447.23524857 7.56781673 C454.78539743 16.24322817 455.29569924 25.25279291 454.52968216 36.35883236 C454.04502596 40.58299373 452.66556289 43.89090615 450.29774857 47.38031673 C449.57587357 48.45281673 448.85399857 49.52531673 448.11024857 50.63031673 C440.96091349 57.6207777 433.65648261 59.53312393 423.87562084 59.52012444 C422.76309824 59.52455157 422.76309824 59.52455157 421.62810043 59.52906814 C419.13507332 59.53775164 416.64209265 59.5393391 414.14905167 59.54094601 C412.34662503 59.5456775 410.54419945 59.55082848 408.7417751 59.55636364 C403.7823523 59.5702684 398.82293685 59.57785294 393.86349952 59.58433664 C389.61124936 59.59070875 385.35901125 59.60077866 381.1067686 59.6108973 C367.09788447 59.64421573 353.08899302 59.66574069 339.08008227 59.68409714 C335.43249934 59.68889253 331.78491672 59.6938758 328.13733411 59.69890237 C305.48639938 59.72987169 282.8354621 59.75655686 260.18451214 59.77332115 C254.93832202 59.77727064 249.69213195 59.78127364 244.44594193 59.78534603 C243.14202789 59.78635439 241.83811385 59.78736275 240.49468727 59.78840167 C219.37044537 59.80540988 198.24632059 59.84652147 177.12213587 59.89736902 C155.43472199 59.94914298 133.74736835 59.97826304 112.05989319 59.98551804 C99.88301016 59.9901803 87.70631899 60.0049321 75.52949715 60.04526234 C65.15955061 60.07956651 54.78983057 60.09349992 44.41983055 60.0808382 C39.13015443 60.07501252 33.84095732 60.0788695 28.55135345 60.10900784 C23.70440066 60.13639842 18.85826656 60.13585026 14.01129533 60.11349738 C12.26224014 60.1102787 10.51312986 60.11711795 8.76416617 60.13529461 C-2.47633185 60.24498942 -11.7751229 59.35906662 -20.71919447 51.63950914 C-27.5215693 44.72210582 -28.24020342 35.93509095 -28.1900444 26.6937933 C-27.87454972 18.15087747 -25.07096673 12.30996554 -18.82725143 6.44281673 C-13.12622798 1.58859802 -7.36241124 -0.07248233 0 0 Z " fill="#9C5427" transform="translate(42.70225143432617,198.61968326568604)"/>
<path d="M0 0 C137.28 0 274.56 0 416 0 C416 5.61 416 11.22 416 17 C414.0773381 17.00364563 412.15467621 17.00729126 410.17375183 17.01104736 C392.08843974 17.04792695 374.00329741 17.10538368 355.91811657 17.18390274 C346.61948029 17.22374287 337.32092926 17.25611002 328.0222168 17.27099609 C319.91916054 17.28398691 311.81629145 17.31088547 303.71334058 17.35461307 C299.42129244 17.37728602 295.12947564 17.39290721 290.83736229 17.39188385 C286.79974162 17.39114066 282.76263346 17.40895302 278.72514534 17.44116783 C277.24126394 17.44970582 275.75732531 17.45139045 274.27342987 17.44580269 C272.25132965 17.43920093 270.22919428 17.45937674 268.2071991 17.48101807 C267.07431552 17.48470524 265.94143194 17.48839241 264.77421856 17.49219131 C261.90397469 17.75182815 261.90397469 17.75182815 260.10423756 19.84103012 C258.52698473 22.9248243 259.0274156 24.73489523 260 28 C261.11420904 29.76798318 261.11420904 29.76798318 263 31 C265.85738163 31.4613845 265.85738163 31.4613845 269.16923523 31.39872742 C270.46072479 31.41126556 271.75221436 31.42380371 273.08283997 31.4367218 C274.51705958 31.43554769 275.95127898 31.43408851 277.38549805 31.43237305 C278.89331874 31.44138754 280.40113209 31.45171399 281.90893555 31.46325684 C286.0057539 31.49088994 290.10243346 31.50011986 294.19933295 31.50611091 C298.4795279 31.51547822 302.75961848 31.54168021 307.03974915 31.56611633 C315.14634351 31.60983037 323.25291769 31.63834716 331.35959417 31.66143972 C340.5880849 31.68846515 349.8164709 31.73237825 359.04488695 31.77772844 C378.0298694 31.87064493 397.01487953 31.94229354 416 32 C416.07433779 36.89295147 416.12869027 41.78557183 416.16479492 46.67895508 C416.17985114 48.34242481 416.20030063 50.00585505 416.22631836 51.66918945 C416.26284207 54.06471522 416.27975782 56.45971467 416.29296875 58.85546875 C416.30845261 59.5952446 416.32393646 60.33502045 416.33988953 61.09721375 C416.34134785 65.60458317 415.77309385 68.41868421 413 72 C409.8471666 74.65124627 407.84941253 75.90132573 403.73828125 76.37890625 C399.08568732 75.90732672 396.65226886 74.30720299 392.9375 71.625 C385.0412951 66.0655158 378.84292803 64.63798645 369.1875 64.625 C367.76727539 64.58826172 367.76727539 64.58826172 366.31835938 64.55078125 C357.28864992 64.51349408 350.9244415 67.50563042 343.4375 72.375 C342.51195312 72.97570312 341.58640625 73.57640625 340.6328125 74.1953125 C338.28457222 75.80493715 336.04732329 77.4884334 333.8125 79.25 C326.20242942 84.9882387 318.47515237 86.32057873 309 85 C302.15762875 82.71053738 296.65342955 78.83379502 291 74.4375 C281.47177344 67.18722992 273.79047143 64.5815987 261.875 64.4375 C260.9567041 64.42259521 260.0384082 64.40769043 259.09228516 64.39233398 C247.31383107 64.5706675 238.73075233 69.99453545 229.53125 76.8359375 C220.57130237 83.38997327 212.28775793 86.70381252 201 85 C194.1815722 82.66528542 188.64814572 78.83540513 183 74.4375 C173.47177344 67.18722992 165.79047143 64.5815987 153.875 64.4375 C152.9567041 64.42259521 152.0384082 64.40769043 151.09228516 64.39233398 C139.22565834 64.5720025 130.74713549 70.09578468 121.42578125 76.87109375 C120.13220703 77.80115234 120.13220703 77.80115234 118.8125 78.75 C118.03519531 79.32234375 117.25789063 79.8946875 116.45703125 80.484375 C113.72388223 82.17032384 111.05085989 83.02971194 108 84 C107.89848443 77.54058268 107.82848624 71.08137148 107.78027344 64.62133789 C107.76017233 62.42431958 107.73288694 60.22735468 107.69824219 58.03051758 C107.64965907 54.87047134 107.62701595 51.71113313 107.609375 48.55078125 C107.58872986 47.57039383 107.56808472 46.59000641 107.54681396 45.57991028 C107.54537397 41.19222178 107.56424778 38.71047776 109.89941406 34.90307617 C112.9919135 32.10135219 114.65460676 31.87458609 118.73129272 31.86869812 C120.22867226 31.86268585 120.22867226 31.86268585 121.75630188 31.85655212 C123.40519661 31.8573452 123.40519661 31.8573452 125.08740234 31.8581543 C126.24194412 31.85467987 127.3964859 31.85120544 128.58601379 31.84762573 C131.09984223 31.84025924 133.61367721 31.83491864 136.12751389 31.83133507 C140.10259981 31.8241888 144.07760009 31.8088916 148.05264282 31.78999329 C149.41312975 31.78365581 150.77361674 31.77733019 152.13410378 31.77101612 C153.15615028 31.7662674 153.15615028 31.7662674 154.19884419 31.76142275 C163.454487 31.71933322 172.71008818 31.6863679 181.96582031 31.67407227 C188.20734616 31.66569556 194.44865016 31.64321973 200.69006503 31.6047166 C203.99345427 31.58494208 207.29643731 31.57476519 210.59989548 31.57755089 C214.28487473 31.57989386 217.96895102 31.55781221 221.65380859 31.5300293 C222.74902328 31.53663071 223.84423798 31.54323212 224.97264099 31.55003357 C225.97653366 31.53756592 226.98042633 31.52509827 228.01473999 31.51225281 C228.8860021 31.50986445 229.75726421 31.5074761 230.65492821 31.50501537 C233.80626853 30.82636864 235.01932187 29.49279909 237 27 C237.44914211 23.85600523 237.70158579 21.95714317 235.78368664 19.34063625 C233.4189396 17.56326935 231.96772383 17.62032332 229.02351379 17.61231995 C227.99601013 17.60241531 226.96850647 17.59251068 225.90986633 17.58230591 C224.21968636 17.58905838 224.21968636 17.58905838 222.49536133 17.59594727 C221.30808441 17.58908401 220.1208075 17.58222076 218.89755249 17.57514954 C215.63892006 17.55996555 212.38064534 17.55839375 209.12199235 17.56409192 C206.39865641 17.56718154 203.67537228 17.56109327 200.95204371 17.55505317 C194.52194048 17.5409959 188.09197004 17.54257673 181.66186523 17.55395508 C175.04019859 17.56541395 168.41893803 17.55140141 161.79732496 17.5245586 C156.10543786 17.50235312 150.41367775 17.49577578 144.72175044 17.50163502 C141.32548257 17.50499715 137.92947443 17.5026407 134.53324318 17.48538399 C130.739061 17.4704781 126.94576609 17.4811513 123.15161133 17.49829102 C122.03494583 17.48862305 120.91828033 17.47895508 119.76777649 17.46899414 C112.23490336 17.54011464 106.92485483 18.69201823 101.01171875 23.67578125 C100.57472656 24.21589844 100.13773437 24.75601562 99.6875 25.3125 C99.23761719 25.84488281 98.78773438 26.37726563 98.32421875 26.92578125 C94.24259268 33.31912473 93.56776679 38.49980849 93.63110352 45.93920898 C93.62733704 46.91249146 93.62357056 47.88577393 93.61968994 48.8885498 C93.61327624 50.99248227 93.61356981 53.09644372 93.61987495 55.20037651 C93.62901128 58.53442024 93.61873199 61.86790472 93.60325623 65.20191956 C93.56322616 74.67765471 93.56195368 84.15334473 93.56420898 93.62915039 C93.56426015 99.43395172 93.54505973 105.23845062 93.51487541 111.04316902 C93.50407348 114.32035664 93.51616651 117.59696154 93.52870178 120.87413025 C93.51979458 122.89322479 93.50971923 124.91231464 93.49829102 126.93139648 C93.51290627 128.28839409 93.51290627 128.28839409 93.52781677 129.67280579 C93.46108691 135.60011528 92.30045309 140.02459132 89 145 C86.03760737 147.74671522 82.69619505 148.86223797 78.69140625 149.1875 C72.94315018 148.87730743 69.89873315 147.17721408 66 143 C62.57423586 137.6784926 62.59109657 133.13816806 62.6628418 127.02246094 C62.6622879 126.03302994 62.66173401 125.04359894 62.66116333 124.02418518 C62.6614227 121.88147734 62.66827973 119.73876229 62.68100548 117.59609222 C62.69941273 114.19857169 62.69670468 110.80166652 62.6879425 107.40411377 C62.66615513 97.74636324 62.67700256 88.08884885 62.71508789 78.43115234 C62.73693131 72.51718868 62.72960128 66.60383016 62.7046299 60.689888 C62.70104649 58.44294451 62.70864418 56.19595306 62.72788048 53.94908905 C63.44588298 37.74282578 63.44588298 37.74282578 56 24 C49.1818681 18.31822341 42.31689171 17.69169059 33.7890625 17.5859375 C32.82092621 17.56657135 31.85278992 17.5472052 30.85531616 17.5272522 C27.7786323 17.4677167 24.70191049 17.4211753 21.625 17.375 C19.53253623 17.33679627 17.44008778 17.29774315 15.34765625 17.2578125 C10.23189604 17.16203655 5.11606224 17.07790958 0 17 C0 11.39 0 5.78 0 0 Z " fill="#BAEA6B" transform="translate(48,273)"/>
<path d="M0 0 C137.28 0 274.56 0 416 0 C416 5.61 416 11.22 416 17 C414.07955872 16.99920441 412.15911743 16.99840881 410.18048096 16.99758911 C392.11017199 16.99399178 374.04014552 17.02133007 355.96992874 17.0802784 C346.67911144 17.10978951 337.38852323 17.1280931 328.09765625 17.12011719 C320.00076663 17.11319459 311.90423146 17.12719369 303.80742908 17.16643608 C299.51914154 17.18648608 295.23141083 17.19597748 290.94309235 17.18042374 C286.90774504 17.16611786 282.87346291 17.17975732 278.83825302 17.21495247 C277.35639979 17.22292954 275.87445079 17.22064407 274.39263535 17.20739174 C272.37094573 17.19083833 270.34904528 17.21462369 268.32745361 17.24050903 C267.19549183 17.24235262 266.06353004 17.24419621 264.89726639 17.24609566 C261.69446638 17.75869927 261.69446638 17.75869927 259.74468613 20.99993706 C259.1689397 21.98995783 258.59319328 22.9799786 258 24 C255.75756836 24.76049805 255.75756836 24.76049805 253.33984375 24.76171875 C252.46392578 24.76494141 251.58800781 24.76816406 250.68554688 24.77148438 C249.32526367 24.72991211 249.32526367 24.72991211 247.9375 24.6875 C247.02677734 24.70232422 246.11605469 24.71714844 245.17773438 24.73242188 C242.66772497 24.70097739 240.43808495 24.5998141 238 24 C235.94140625 21.51953125 235.94140625 21.51953125 235 19 C233.36582669 17.36582669 231.51959395 17.86359017 229.26402283 17.85282898 C228.23926849 17.84567368 227.21451416 17.83851837 226.15870667 17.83114624 C225.02472946 17.82845734 223.89075226 17.82576843 222.72241211 17.82299805 C221.53542725 17.81642685 220.34844238 17.80985565 219.12548828 17.80308533 C215.85858429 17.7867098 212.5917139 17.77511426 209.32478023 17.7668798 C207.28259892 17.761732 205.24042218 17.75565594 203.19824409 17.74936867 C196.8059533 17.73030227 190.41367412 17.71607843 184.02136034 17.7077567 C176.64877837 17.69800039 169.27649794 17.67172945 161.90402216 17.63125581 C156.20370928 17.60104001 150.50348249 17.58628238 144.80309111 17.58297569 C141.40004941 17.58062991 137.99732928 17.57173317 134.5943737 17.54651451 C130.79045569 17.52216531 126.98732172 17.52308145 123.18334961 17.5300293 C122.06354202 17.51721924 120.94373444 17.50440918 119.78999329 17.49121094 C112.23908582 17.54140957 106.93916237 18.67995941 101.01171875 23.67578125 C100.57472656 24.21589844 100.13773437 24.75601562 99.6875 25.3125 C99.23761719 25.84488281 98.78773438 26.37726563 98.32421875 26.92578125 C94.24259268 33.31912473 93.56776679 38.49980849 93.63110352 45.93920898 C93.62733704 46.91249146 93.62357056 47.88577393 93.61968994 48.8885498 C93.61327624 50.99248227 93.61356981 53.09644372 93.61987495 55.20037651 C93.62901128 58.53442024 93.61873199 61.86790472 93.60325623 65.20191956 C93.56322616 74.67765471 93.56195368 84.15334473 93.56420898 93.62915039 C93.56426015 99.43395172 93.54505973 105.23845062 93.51487541 111.04316902 C93.50407348 114.32035664 93.51616651 117.59696154 93.52870178 120.87413025 C93.51979458 122.89322479 93.50971923 124.91231464 93.49829102 126.93139648 C93.51290627 128.28839409 93.51290627 128.28839409 93.52781677 129.67280579 C93.46108691 135.60011528 92.30045309 140.02459132 89 145 C86.03760737 147.74671522 82.69619505 148.86223797 78.69140625 149.1875 C72.94315018 148.87730743 69.89873315 147.17721408 66 143 C62.57423586 137.6784926 62.59109657 133.13816806 62.6628418 127.02246094 C62.6622879 126.03302994 62.66173401 125.04359894 62.66116333 124.02418518 C62.6614227 121.88147734 62.66827973 119.73876229 62.68100548 117.59609222 C62.69941273 114.19857169 62.69670468 110.80166652 62.6879425 107.40411377 C62.66615513 97.74636324 62.67700256 88.08884885 62.71508789 78.43115234 C62.73693131 72.51718868 62.72960128 66.60383016 62.7046299 60.689888 C62.70104649 58.44294451 62.70864418 56.19595306 62.72788048 53.94908905 C63.44588298 37.74282578 63.44588298 37.74282578 56 24 C49.1818681 18.31822341 42.31689171 17.69169059 33.7890625 17.5859375 C32.82092621 17.56657135 31.85278992 17.5472052 30.85531616 17.5272522 C27.7786323 17.4677167 24.70191049 17.4211753 21.625 17.375 C19.53253623 17.33679627 17.44008778 17.29774315 15.34765625 17.2578125 C10.23189604 17.16203655 5.11606224 17.07790958 0 17 C0 11.39 0 5.78 0 0 Z " fill="#FBE159" transform="translate(48,273)"/>
<path d="M0 0 C6.57936112 2.34568527 11.86474065 6.63727979 15.4375 12.6875 C19.37448625 21.03391084 19.55266419 31.75760984 16.94140625 40.57421875 C13.46181209 48.08976494 9.02139398 53.09437142 1.22665393 56.05249012 C-1.96058173 56.98842479 -4.44498676 57.24867683 -7.75146294 57.24609566 C-8.88157921 57.25007775 -10.01169548 57.25405985 -11.1760577 57.25816262 C-13.02333373 57.24942409 -13.02333373 57.24942409 -14.90792847 57.24050903 C-16.22387532 57.24221788 -17.53982218 57.24392673 -18.89564621 57.24568737 C-22.54203952 57.25015468 -26.18831512 57.24216571 -29.83469343 57.23213124 C-33.76918499 57.22349016 -37.70366996 57.22641737 -41.63816833 57.22793579 C-48.4528854 57.22898422 -55.26756415 57.22271196 -62.08227158 57.21146011 C-71.93517562 57.19520246 -81.78806115 57.18999683 -91.64097716 57.18748413 C-107.62687288 57.18310745 -123.61274818 57.16979906 -139.59863281 57.15087891 C-155.12695209 57.13251942 -170.65526581 57.11836325 -186.18359375 57.10986328 C-187.61946761 57.10907511 -187.61946761 57.10907511 -189.08434902 57.10827102 C-193.88661205 57.10566093 -198.68887512 57.10313352 -203.49113822 57.10064721 C-243.32743991 57.07991554 -283.16371828 57.04454199 -323 57 C-323 51.39 -323 45.78 -323 40 C-321.06125 39.443125 -319.1225 38.88625 -317.125 38.3125 C-309.47923695 35.8296883 -303.46296802 31.39573747 -297.13134766 26.54614258 C-288.09197983 19.62452933 -280.14967851 19.007986 -269 20 C-261.86045731 21.41280981 -256.26902995 26.68883403 -250.60180664 30.98706055 C-245.70403479 34.64815275 -240.91811214 37.30911082 -235 39 C-234.08541016 39.28423828 -234.08541016 39.28423828 -233.15234375 39.57421875 C-221.67157734 41.84536855 -210.13223247 39.57272786 -200 34 C-197.15691321 32.06263943 -194.40222264 30.03598013 -191.65234375 27.96875 C-181.7909404 20.64894545 -173.254163 18.48497029 -161 20 C-153.29918089 22.37150225 -147.4058433 27.06483724 -141.3046875 32.171875 C-131.16640776 40.21376469 -119.32206953 40.97691015 -106.8125 39.79296875 C-97.78298494 38.02209403 -88.59676441 32.58132147 -81.625 26.75 C-73.85433596 20.27235437 -67.70647936 19.42130413 -57.55078125 19.65234375 C-52.83370722 20.11419148 -49.87086426 21.37960012 -46 24 C-44.27568536 25.0703563 -42.54625445 26.13250279 -40.8125 27.1875 C-40.01457031 27.69667969 -39.21664063 28.20585937 -38.39453125 28.73046875 C-32.663829 31.76876929 -25.54687434 32.01715713 -19.37109375 30.24609375 C-10.54055675 26.89022648 -6.3108793 22.77594839 -2.2265625 14.26171875 C-0.44918736 9.53525938 -0.01976661 5.02071983 0 0 Z " fill="#E84343" transform="translate(479,332)"/>
<path d="M0 0 C0.86564575 0.00126892 1.7312915 0.00253784 2.62316895 0.00384521 C36.38671988 0.09789627 70.23409622 3.55182241 102.4375 14.1875 C104.04811187 14.69161464 105.65878979 15.19551832 107.26953125 15.69921875 C138.46750589 25.75797247 166.91258095 42.40182554 190.4375 65.1875 C191.23583252 65.94716064 191.23583252 65.94716064 192.05029297 66.72216797 C212.15203308 85.88044125 238.75388528 118.80375814 240 147.5 C239.66716011 154.31871989 237.66493105 159.40090157 232.625 164.0625 C229.11019756 166.40570163 226.52120765 167.28908432 222.4375 168.1875 C222.59347656 167.47207031 222.74945313 166.75664062 222.91015625 166.01953125 C226.0906101 148.93931612 217.20689066 133.81895938 209.4375 119.1875 C208.92147217 118.1975 208.92147217 118.1975 208.39501953 117.1875 C201.11900864 103.29354168 192.14162734 90.82990104 181.4453125 79.34765625 C179.56262006 77.32211361 177.78012939 75.24045609 176 73.125 C153.76157416 47.73146569 121.5255137 31.70383159 90.4375 20.1875 C89.53273926 19.84283691 88.62797852 19.49817383 87.69580078 19.14306641 C81.23906335 16.71877243 74.76076223 14.82096511 68.0625 13.1875 C66.49677246 12.80404419 66.49677246 12.80404419 64.89941406 12.4128418 C33.59663272 4.86722898 2.52365507 2.68319768 -29.5625 2.1875 C-29.5625 1.8575 -29.5625 1.5275 -29.5625 1.1875 C-19.71944226 -0.00331403 -9.89810783 -0.01490038 0 0 Z " fill="#FB840A" transform="translate(252.5625,15.8125)"/>
<path d="M0 0 C0.01417969 0.75023437 0.02835938 1.50046875 0.04296875 2.2734375 C0.42961979 10.57075983 1.7687835 17.8042654 7.86328125 23.84765625 C15.03198032 29.51301648 21.88903067 31.99519819 31 31 C37.63162003 29.74383989 42.49474854 26.54204634 47.8359375 22.5234375 C53.00988211 18.88112992 55.86022998 20 63 20 C63 32.21 63 44.42 63 57 C55.19158021 57.06304645 47.38409127 57.12313528 39.57563782 57.15525055 C35.93882265 57.17104128 32.30221992 57.19211556 28.66552734 57.22631836 C25.15770383 57.25909979 21.65008532 57.27689219 18.14212036 57.28463173 C16.1636071 57.29280918 14.18517542 57.31619824 12.20678711 57.33988953 C3.72750132 57.34146355 -3.98798272 56.84670016 -10.546875 50.73828125 C-17.3482753 42.60219755 -19.03314865 34.27855934 -18.44921875 24 C-17.68547195 15.79693615 -14.8378964 9.95256024 -8.7421875 4.40625 C-3.28333333 0 -3.28333333 0 0 0 Z " fill="#E74343" transform="translate(33,332)"/>
<path d="M0 0 C5.87150428 -0.12389553 11.74224243 -0.21447924 17.61474609 -0.2746582 C19.61097473 -0.29975272 21.60711193 -0.33383626 23.60302734 -0.37719727 C26.47776888 -0.43807246 29.35129248 -0.46626024 32.2265625 -0.48828125 C33.11429352 -0.51408768 34.00202454 -0.5398941 34.91665649 -0.56648254 C39.08446178 -0.56835541 42.14138828 -0.37716326 45.57421875 2.13085938 C48.46320358 5.54786317 48.71146377 6.98019071 48.5859375 11.39453125 C48.56660156 12.59658203 48.54726562 13.79863281 48.52734375 15.03710938 C48.47707031 16.28298828 48.42679688 17.52886719 48.375 18.8125 C48.33439453 20.71032227 48.33439453 20.71032227 48.29296875 22.64648438 C48.22233697 25.7660547 48.12373646 28.88215841 48 32 C46.94941406 32.08636719 45.89882812 32.17273438 44.81640625 32.26171875 C36.49410004 33.05209983 29.97345243 34.07097338 23 39 C14.28926224 45.04821037 14.28926224 45.04821037 8 44 C4.01655045 41.89553609 1.51511341 40.26404965 0 36 C-0.16858166 33.20915781 -0.23284241 30.52228007 -0.1953125 27.734375 C-0.1924826 26.94097717 -0.18965271 26.14757935 -0.18673706 25.33013916 C-0.17556779 22.80327083 -0.15046944 20.27676068 -0.125 17.75 C-0.11496598 16.0338593 -0.10584087 14.31771302 -0.09765625 12.6015625 C-0.07563914 8.40090426 -0.04113187 4.2005128 0 0 Z " fill="#B9EA6B" transform="translate(48,305)"/>
<path d="M0 0 C101.97 0 203.94 0 309 0 C309 24.02026721 302.4006143 43.91935831 285.875 61.6875 C275.79488923 71.22510481 263.66323919 77.6095671 251 83 C249.9790625 83.44601562 248.958125 83.89203125 247.90625 84.3515625 C242.97547173 86.43439125 242.97547173 86.43439125 241 87 C240.34 86.67 239.68 86.34 239 86 C240.07636719 85.40574219 241.15273438 84.81148438 242.26171875 84.19921875 C256.52716583 76.16916316 268.3063513 67.38552713 278 54 C278.54011719 53.27039063 279.08023437 52.54078125 279.63671875 51.7890625 C289.75985656 36.64421065 291.95933182 18.69135898 293 1 C196.31 1 99.62 1 0 1 C0 0.67 0 0.34 0 0 Z " fill="#E47A0F" transform="translate(156,404)"/>
<path d="M0 0 C6.52193228 1.83429345 12.0347005 6.92509501 15.4375 12.6875 C19.37448625 21.03391084 19.55266419 31.75760984 16.94140625 40.57421875 C13.98888573 46.95134303 10.42481866 51.89756505 4 55 C1.02154249 55.94495386 -1.90483366 56.58444526 -5 57 C-4.52949219 56.31035156 -4.05898438 55.62070312 -3.57421875 54.91015625 C4.26645932 43.07608936 6.54264686 33.13232341 5 19 C3.52260071 12.50934221 3.52260071 12.50934221 0 7 C-0.04092937 4.66702567 -0.04241723 2.33294775 0 0 Z " fill="#D43030" transform="translate(479,332)"/>
<path d="M0 0 C3.96 0 7.92 0 12 0 C12.07433779 4.89295147 12.12869027 9.78557183 12.16479492 14.67895508 C12.17985114 16.34242481 12.20030063 18.00585505 12.22631836 19.66918945 C12.26284207 22.06471522 12.27975782 24.45971467 12.29296875 26.85546875 C12.30845261 27.5952446 12.32393646 28.33502045 12.33988953 29.09721375 C12.34134785 33.60458317 11.77309385 36.41868421 9 40 C5.61325602 42.8479438 3.68086945 43.93191306 -0.75 44.375 C-4 44 -4 44 -6 42 C-4.515 41.505 -4.515 41.505 -3 41 C-0.88071309 36.35253476 -0.66499262 31.78542847 -0.5859375 26.7578125 C-0.56657135 25.98944061 -0.5472052 25.22106873 -0.5272522 24.42941284 C-0.46785883 21.99471862 -0.42123372 19.55997607 -0.375 17.125 C-0.33678307 15.46612614 -0.29772921 13.80727133 -0.2578125 12.1484375 C-0.16219093 8.09911458 -0.07801299 4.04969887 0 0 Z " fill="#A0E42D" transform="translate(452,305)"/>
<path d="M0 0 C2.875 2.0625 2.875 2.0625 5 5 C4.78583297 10.69960651 2.92630939 14.62056954 0.0625 19.375 C-0.29779297 20.00277344 -0.65808594 20.63054687 -1.02929688 21.27734375 C-3.7150974 25.8575487 -3.7150974 25.8575487 -6 27 C-9.375 27.375 -9.375 27.375 -13 27 C-15.557105 24.70516218 -16.82184508 23.19678185 -17.33203125 19.76953125 C-16.87625184 15.96779478 -15.16999956 13.10904181 -13.25 9.875 C-12.90195313 9.25496094 -12.55390625 8.63492188 -12.1953125 7.99609375 C-9.23251208 2.89349302 -6.34308353 -1.23767484 0 0 Z " fill="#090502" transform="translate(196,58)"/>
<path d="M0 0 C3.9375 0.5 3.9375 0.5 5.65649414 1.73461914 C8.19872509 5.23812057 7.40585249 9.76680445 7.375 13.9375 C7.39498047 14.89205078 7.41496094 15.84660156 7.43554688 16.83007812 C7.43067089 23.79785839 7.43067089 23.79785839 5.09375 27.125 C2.08414491 29.04416846 0.44262806 29.14379903 -3.0625 28.5 C-5.78047416 26.48150449 -7.74384797 24.88216363 -8.52758789 21.48266602 C-8.69979145 19.13571888 -8.69563345 16.85190313 -8.625 14.5 C-8.63595703 13.7059375 -8.64691406 12.911875 -8.65820312 12.09375 C-8.60879627 8.14120139 -8.31971926 5.937724 -6.28125 2.46875 C-3.91279238 0.36716085 -3.10098053 -0.14339794 0 0 Z " fill="#080401" transform="translate(256.0625,57.5)"/>
<path d="M0 0 C3.58853895 0.90947254 5.16567121 3.52534555 6.98828125 6.50390625 C7.68824219 7.55384766 7.68824219 7.55384766 8.40234375 8.625 C11.59871637 13.77669554 12.92796042 17.44819602 11.98828125 23.50390625 C9.80074842 26.19625435 8.4040417 26.44327452 4.98828125 26.94140625 C1.21124975 26.39058916 0.47250441 25.3436957 -2.01171875 22.50390625 C-3.32496956 20.58741421 -4.5731373 18.62511355 -5.76171875 16.62890625 C-6.3753125 15.62085937 -6.98890625 14.6128125 -7.62109375 13.57421875 C-9.13709745 10.22708697 -9.36032518 8.13351438 -9.01171875 4.50390625 C-7.20153905 0.20472945 -4.54125238 -0.25736531 0 0 Z " fill="#040201" transform="translate(320.01171875,58.49609375)"/>
<path d="M0 0 C3.96 0 7.92 0 12 0 C12 5.61 12 11.22 12 17 C-38.16 17 -88.32 17 -140 17 C-140 16.67 -140 16.34 -140 16 C-93.8 16 -47.6 16 0 16 C0 10.72 0 5.44 0 0 Z " fill="#E0C636" transform="translate(452,273)"/>
<path d="M0 0 C0.33 0.99 0.66 1.98 1 3 C-1.58193977 3.67250524 -4.16532071 4.33817901 -6.75 5 C-7.47960937 5.19078125 -8.20921875 5.3815625 -8.9609375 5.578125 C-12.44571646 6.46515964 -15.38123722 7 -19 7 C-18.67 6.01 -18.34 5.02 -18 4 C-15.52526748 2.92505652 -13.18550699 2.05432283 -10.625 1.25 C-9.93921875 1.01667969 -9.2534375 0.78335937 -8.546875 0.54296875 C-3.39381927 -1.13127309 -3.39381927 -1.13127309 0 0 Z " fill="#FE8912" transform="translate(158,23)"/>
<path d="M0 0 C0.99 0.33 1.98 0.66 3 1 C3.33 1.99 3.66 2.98 4 4 C1.69 4 -0.62 4 -3 4 C-2.67 3.34 -2.34 2.68 -2 2 C-1.34 2 -0.68 2 0 2 C0 1.34 0 0.68 0 0 Z " fill="#F6830E" transform="translate(155,22)"/>
</svg>