<svg version="1.1" xmlns="http://www.w3.org/2000/svg" width="24" height="24" viewBox="0 0 256 256">
<path d="M0 0 C0.85947739 -0.00563965 1.71895477 -0.0112793 2.60447693 -0.01708984 C3.54432434 -0.01304138 4.48417175 -0.00899292 5.45249939 -0.00482178 C6.44458908 -0.00832642 7.43667877 -0.01183105 8.45883179 -0.01544189 C11.74447079 -0.02425849 15.02989523 -0.01841069 18.3155365 -0.01165771 C20.59332318 -0.01300428 22.87110957 -0.01494473 25.14889526 -0.01745605 C29.92460362 -0.02040713 34.70023721 -0.01610974 39.47593689 -0.0067749 C45.60872114 0.00462603 51.74133047 -0.00194407 57.87410831 -0.01391983 C62.57771126 -0.02113332 67.28127246 -0.01885296 71.98487663 -0.01366425 C74.24679523 -0.01232667 76.50871757 -0.01397922 78.77063179 -0.01862335 C81.92640915 -0.02368088 85.08189974 -0.01598947 88.23765564 -0.00482178 C89.6504631 -0.01089447 89.6504631 -0.01089447 91.09181213 -0.01708984 C92.37679848 -0.00863037 92.37679848 -0.00863037 93.68774414 0 C94.43418717 0.00075405 95.18063021 0.0015081 95.94969273 0.002285 C97.78038025 0.25396729 97.78038025 0.25396729 99.78038025 2.25396729 C101.76859338 2.65160991 103.76982364 2.99172077 105.78038025 3.25396729 C106.11038025 2.26396729 106.44038025 1.27396729 106.78038025 0.25396729 C110.67596113 0.13753424 114.57109283 0.06663819 118.46788025 0.00396729 C119.57067322 -0.02954834 120.67346619 -0.06306396 121.80967712 -0.09759521 C129.9019984 -0.19538762 129.9019984 -0.19538762 133.9874115 1.89459229 C136.12503716 4.70750274 136.54215681 6.76002352 136.78038025 10.25396729 C137.579599 10.20756104 138.37881775 10.16115479 139.20225525 10.11334229 C149.83687247 9.76384782 159.22505567 11.57664079 167.78038025 18.25396729 C168.60538025 18.81084229 169.43038025 19.36771729 170.28038025 19.94146729 C178.17286394 27.2420147 183.14017701 37.91147562 183.81163025 48.62115479 C183.6633354 61.11499582 179.54717605 71.1234444 171.02256775 80.21099854 C162.75728924 87.74190561 152.88435318 91.15755073 141.78038025 91.25396729 C136.97854484 90.68756468 132.36801263 89.78317808 127.78038025 88.25396729 C127.57413025 88.91396729 127.36788025 89.57396729 127.15538025 90.25396729 C125.25892069 94.39169722 122.60862147 97.70851657 119.78038025 101.25396729 C119.30342712 101.86756104 118.826474 102.48115479 118.33506775 103.11334229 C114.47454377 107.88098392 110.95786054 110.37085707 105.78038025 114.25396729 C113.37038025 114.58396729 120.96038025 114.91396729 128.78038025 115.25396729 C129.44038025 116.57396729 130.10038025 117.89396729 130.78038025 119.25396729 C133.21755283 118.98362095 133.21755283 118.98362095 135.78038025 118.25396729 C136.77038025 116.76896729 136.77038025 116.76896729 137.78038025 115.25396729 C140.8790644 114.96255798 143.77463546 114.85825631 146.87413025 114.89068604 C147.77659485 114.89018753 148.67905945 114.88968903 149.60887146 114.88917542 C151.51876525 114.8915181 153.428662 114.90125802 155.33848572 114.91778564 C158.26861561 114.94137258 161.19783587 114.9383489 164.1280365 114.93170166 C165.98090653 114.93727837 167.83377271 114.94438821 169.68663025 114.95318604 C170.56685852 114.95227463 171.44708679 114.95136322 172.35398865 114.95042419 C178.54936378 115.02295082 178.54936378 115.02295082 180.78038025 117.25396729 C181.151474 120.18756104 181.151474 120.18756104 181.21788025 123.69146729 C181.25784119 124.84517822 181.29780212 125.99888916 181.338974 127.18756104 C180.78038025 130.25396729 180.78038025 130.25396729 178.57928467 131.86695862 C175.79435087 133.24704409 173.4842143 133.94205677 170.4393158 134.51251221 C169.39861435 134.71249313 168.3579129 134.91247406 167.28567505 135.11851501 C166.17404495 135.32176895 165.06241486 135.52502289 163.917099 135.73443604 C162.7699794 135.95215164 161.6228598 136.16986725 160.440979 136.3941803 C156.78495346 137.08587258 153.12653455 137.76383195 149.46788025 138.44146729 C146.98528815 138.9086626 144.50286397 139.37675114 142.02061462 139.84576416 C135.94244526 140.99219501 129.8622549 142.12736829 123.78038025 143.25396729 C123.71979431 144.09701416 123.65920837 144.94006104 123.5967865 145.80865479 C123.51299744 146.90435791 123.42920837 148.00006104 123.34288025 149.12896729 C123.22106384 150.7647876 123.22106384 150.7647876 123.0967865 152.43365479 C122.78038025 155.25396729 122.78038025 155.25396729 121.78038025 157.25396729 C106.67313334 157.27729698 91.56588782 157.29494681 76.45862675 157.30577946 C69.44453391 157.31094226 62.43045224 157.31798467 55.41636658 157.32940674 C48.65369957 157.34041416 41.89104661 157.34624348 35.12837029 157.34884453 C32.54185744 157.35069932 29.95534527 157.35432095 27.36883736 157.35969734 C23.7599917 157.3669038 20.15119478 157.36795839 16.54234314 157.36749268 C15.46125275 157.37108795 14.38016235 157.37468323 13.26631165 157.37838745 C12.28889511 157.37701279 11.31147858 157.37563812 10.30444336 157.3742218 C9.44994126 157.37514359 8.59543917 157.37606539 7.71504307 157.37701511 C5.78038025 157.25396729 5.78038025 157.25396729 4.78038025 156.25396729 C4.54556332 154.07103955 4.36674702 151.88193554 4.21788025 149.69146729 C4.13409119 148.49392822 4.05030212 147.29638916 3.963974 146.06256104 C3.90338806 145.1357251 3.84280212 144.20888916 3.78038025 143.25396729 C3.12527466 143.13312775 2.47016907 143.01228821 1.79521179 142.88778687 C-5.01920117 141.62958578 -11.83200584 140.36294169 -18.64393616 139.09136963 C-21.18682692 138.61784345 -23.73012066 138.14647597 -26.27381897 137.67730713 C-29.92870795 137.00279972 -33.58208034 136.32055789 -37.23524475 135.63677979 C-38.37390991 135.42836456 -39.51257507 135.21994934 -40.68574524 135.00521851 C-42.27694183 134.70513382 -42.27694183 134.70513382 -43.90028381 134.39898682 C-44.83294067 134.22577911 -45.76559753 134.05257141 -46.72651672 133.87411499 C-49.18238119 133.2632302 -51.09295373 132.62574002 -53.21961975 131.25396729 C-54.14312702 128.48344548 -54.3829156 126.6870797 -54.40711975 123.81646729 C-54.42129944 123.05463135 -54.43547913 122.29279541 -54.4500885 121.50787354 C-54.21961975 119.25396729 -54.21961975 119.25396729 -52.21961975 115.25396729 C-48.58961975 115.25396729 -44.95961975 115.25396729 -41.21961975 115.25396729 C-41.54961975 114.47021729 -41.87961975 113.68646729 -42.21961975 112.87896729 C-44.70375732 103.87396859 -43.05884336 95.68998705 -39.21961975 87.25396729 C-37.30457896 84.89816314 -36.68157564 84.34410502 -33.65711975 83.75396729 C-30.86099092 83.47827358 -30.86099092 83.47827358 -29.21961975 80.25396729 C-29.10489319 79.42381104 -28.99016663 78.59365479 -28.8719635 77.73834229 C-28.21961975 75.25396729 -28.21961975 75.25396729 -26.286026 73.70709229 C-20.21878118 70.79178588 -14.95850282 69.41168582 -8.21961975 69.25396729 C-8.38162369 68.38462555 -8.54362762 67.51528381 -8.71054077 66.61959839 C-9.1846849 63.48492914 -9.35266018 60.56954324 -9.36488342 57.40386963 C-9.37126328 56.27605072 -9.37764313 55.14823181 -9.38421631 53.98623657 C-9.38532913 52.78294708 -9.38644196 51.57965759 -9.3875885 50.33990479 C-9.3925811 48.46910751 -9.3925811 48.46910751 -9.39767456 46.56051636 C-9.4027281 43.92969124 -9.40508337 41.29885975 -9.40492249 38.66802979 C-9.40482054 35.30101723 -9.41851708 31.93421403 -9.43569469 28.56725121 C-9.44949047 25.34564356 -9.44890305 22.12403798 -9.4500885 18.90240479 C-9.45727402 17.69506683 -9.46445953 16.48772888 -9.47186279 15.24380493 C-9.46878616 14.12229034 -9.46570953 13.00077576 -9.46253967 11.84527588 C-9.46396469 10.85965668 -9.46538971 9.87403748 -9.46685791 8.85855103 C-9.20674837 6.11837094 -8.72983985 4.54128368 -7.21961975 2.25396729 C-4.12941738 0.19383237 -3.49122552 0.00352503 0 0 Z M136.78038025 37.25396729 C136.52639716 41.54454681 136.30639492 45.83619862 136.09288025 50.12896729 C136.02004822 51.3522876 135.94721619 52.57560791 135.87217712 53.83599854 C135.81739197 55.0026001 135.76260681 56.16920166 135.7061615 57.37115479 C135.64855652 58.44993896 135.59095154 59.52872314 135.53160095 60.64019775 C135.61369812 61.5027417 135.69579529 62.36528564 135.78038025 63.25396729 C139.50709904 65.73844648 142.46481316 65.77805892 146.78038025 65.25396729 C151.48032054 63.53668141 153.98997524 61.38790063 156.78038025 57.25396729 C158.02304657 53.52596834 158.30940538 50.12613735 157.78038025 46.25396729 C155.53241567 41.92455402 152.94677439 38.81061823 148.78038025 36.25396729 C144.28148677 35.02373095 140.88139439 34.89748255 136.78038025 37.25396729 Z " fill="#080605" transform="translate(63.21961975097656,98.74603271484375)"/>
<path d="M0 0 C42.9 0 85.8 0 130 0 C130 58.16739686 130 58.16739686 110.8984375 77.3046875 C100.54891751 86.9289042 91.11012744 92.69075459 76.83984375 92.390625 C75.29412437 92.38213531 75.29412437 92.38213531 73.71717834 92.37347412 C70.45679371 92.35125474 67.19754708 92.30108508 63.9375 92.25 C61.71420869 92.22991636 59.49089998 92.21166887 57.26757812 92.1953125 C51.84467009 92.15143763 46.42241638 92.08467201 41 92 C40 89 40 89 41 86 C41.55682772 80.55899766 42.13321263 74.86081099 39.125 70.0625 C33.43473827 63.66877185 26.80620322 61.83469891 18.51220703 61.30615234 C14.67369805 61.13345142 10.84222288 61.04339266 7 61 C6.00018537 58.77225769 5.00574977 56.54239612 4.01953125 54.30859375 C3.29172181 52.66056547 2.55505491 51.01643718 1.8125 49.375 C-2.98226233 35.35954089 0 7.96833519 0 0 Z " fill="#FDE5CB" transform="translate(62,122)"/>
<path d="M0 0 C3.5 -0.375 3.5 -0.375 7 0 C7.99 1.485 7.99 1.485 9 3 C11.61677492 3.33792536 14.00936392 3.48886089 16.6328125 3.51171875 C17.38464813 3.52966995 18.13648376 3.54762115 18.91110229 3.56611633 C21.31567756 3.62035781 23.72005285 3.65415792 26.125 3.6875 C27.75393417 3.72066102 29.3828419 3.75514955 31.01171875 3.79101562 C35.00766846 3.87609162 39.00355746 3.94283578 43 4 C43 4.66 43 5.32 43 6 C37.40987443 7.20664149 31.81440399 8.37927123 26.20825195 9.50927734 C21.95586442 10.37158029 17.73679248 11.29606365 13.52514648 12.33764648 C-9.92485235 17.72934081 -34.0629032 16.90106134 -57.98120117 16.87158203 C-63.08190068 16.8667409 -68.18065473 16.8940937 -73.28100586 16.95361328 C-107.87408338 17.35245475 -140.23778951 14.71044712 -174 7 C-174.33 6.01 -174.66 5.02 -175 4 C-174.1102479 3.99761165 -173.2204958 3.99522329 -172.30378151 3.99276257 C-150.68058529 3.93369471 -129.0575013 3.85819768 -107.43442726 3.76428509 C-96.97777945 3.71926871 -86.52116614 3.67986765 -76.06445312 3.65356445 C-66.95319657 3.63063155 -57.84204868 3.59728664 -48.73087823 3.55129844 C-43.90402051 3.52730245 -39.07727083 3.50861559 -34.25035477 3.50238609 C-29.71133193 3.49636392 -25.17258576 3.47646896 -20.63366508 3.44572449 C-18.96391529 3.43689799 -17.29412941 3.43323114 -15.62435722 3.43499184 C-13.3519998 3.43663204 -11.08049854 3.42005468 -8.80825806 3.39872742 C-6.8973812 3.39181397 -6.8973812 3.39181397 -4.94790077 3.38476086 C-3.48868989 3.19430423 -3.48868989 3.19430423 -2 3 C-1.34 2.01 -0.68 1.02 0 0 Z " fill="#FBE4CA" transform="translate(193,218)"/>
<path d="M0 0 C0.556875 0.70125 1.11375 1.4025 1.6875 2.125 C2.89907369 3.6312808 4.11587354 5.13425574 5.37890625 6.59765625 C9 10.79647436 9 10.79647436 9 13 C9.66 12.835 10.32 12.67 11 12.5 C20.10800816 10.98199864 28.59681434 12.32734898 36.25 17.6875 C40.97792286 21.52354289 45.06020645 26.18061935 47 32 C47.06740865 33.56118428 47.08514456 35.1250252 47.0625 36.6875 C47.05347656 37.49574219 47.04445312 38.30398437 47.03515625 39.13671875 C47.02355469 39.75160156 47.01195312 40.36648437 47 41 C67.93061272 43.99008753 85.99876196 40.92324491 103.76953125 29.16796875 C105.94158038 27.5287562 107.97991406 25.82187292 110 24 C110.58652344 23.505 111.17304688 23.01 111.77734375 22.5 C117.81328054 17.0252274 121.78459532 9.8918521 126 3 C127 5 127 5 126.06640625 8.08984375 C119.24072264 26.11901427 108.06687375 38.57607186 91.00976562 47.578125 C86.12454211 49.6347574 81.25755232 49.37448874 76.03515625 49.29296875 C75.00184677 49.28872391 73.96853729 49.28447906 72.90391541 49.28010559 C69.62317178 49.26339394 66.34305608 49.22575511 63.0625 49.1875 C60.83008703 49.17244348 58.59766438 49.15875677 56.36523438 49.14648438 C50.90994419 49.1135151 45.45501698 49.06339087 40 49 C39 46 39 46 40 43 C40.55682772 37.55899766 41.13321263 31.86081099 38.125 27.0625 C32.43473827 20.66877185 25.80620322 18.83469891 17.51220703 18.30615234 C13.67369805 18.13345142 9.84222288 18.04339266 6 18 C4.65573288 15.00476403 3.32492501 12.00383761 2 9 C1.5875 8.071875 1.175 7.14375 0.75 6.1875 C0 4 0 4 0 0 Z " fill="#F6CA96" transform="translate(63,165)"/>
<path d="M0 0 C11.44595154 -0.59373812 19.64994101 0.23206603 28.75 7.5 C35.9057208 14.40152113 39.32483368 21.79772278 39.5625 31.75 C39.30424379 37.3857243 38.78116023 42.06976141 36 47 C35.5978125 47.74765625 35.195625 48.4953125 34.78125 49.265625 C30.44249588 56.54509025 24.13308405 61.48069957 16 64 C13.11970638 64.27791989 10.26662886 64.27960712 7.375 64.25 C6.2303125 64.26160156 6.2303125 64.26160156 5.0625 64.2734375 C1.19218946 64.25985746 -0.71059323 64.19293785 -4 62 C-3.67 59.69 -3.34 57.38 -3 55 C0.36249553 53.95122163 3.24842373 54.01967834 6.75 54.1875 C13.44280175 54.22006838 17.84886842 52.96825341 22.75 48.3515625 C28.16656633 42.3881313 29.53256309 37.08039317 29.375 29.07421875 C28.69338236 23.48637413 26.40251909 19.23286513 22.28515625 15.40625 C17.01467898 11.43897608 12.34064006 9.72877714 5.6875 9.875 C4.61886719 9.89304687 3.55023438 9.91109375 2.44921875 9.9296875 C1.23685547 9.96449219 1.23685547 9.96449219 0 10 C0 6.7 0 3.4 0 0 Z " fill="#F8E1C7" transform="translate(199,117)"/>
<path d="M0 0 C3.1875 -0.25 3.1875 -0.25 6 0 C6.99 1.98 6.99 1.98 8 4 C14.93 4.33 21.86 4.66 29 5 C29 7.31 29 9.62 29 12 C-13.9 12 -56.8 12 -101 12 C-101 9.69 -101 7.38 -101 5 C-99.77891037 4.99635437 -98.55782074 4.99270874 -97.29972839 4.98895264 C-85.80719307 4.9520545 -74.31492699 4.89433877 -62.82259655 4.81609726 C-56.9138647 4.7765427 -51.00528367 4.74439339 -45.09643555 4.72900391 C-39.39691368 4.71388988 -33.69780622 4.67953803 -27.9984684 4.63169098 C-25.82114572 4.61682284 -23.64376389 4.60895589 -21.46639061 4.60811615 C-18.42269781 4.60576108 -15.38016399 4.57879926 -12.33666992 4.54589844 C-11.43108337 4.5509288 -10.52549683 4.55595917 -9.59246826 4.56114197 C-7.32128548 4.52301223 -5.2230938 4.46646359 -3 4 C-1.08284407 2.10548858 -1.08284407 2.10548858 0 0 Z " fill="#FCE5CB" transform="translate(163,102)"/>
<path d="M0 0 C2.86328125 -0.4375 2.86328125 -0.4375 6 0 C11.46816987 4.1370392 15.73711734 10.21966884 17 17 C18.03601409 25.82579095 15.99560265 32.08721165 11.4375 39.5625 C10.87828252 42.67814026 11.64316302 43.43787769 13.3125 46.0625 C13.78300781 46.71347656 14.25351563 47.36445312 14.73828125 48.03515625 C17.9506345 53.0376754 17.55178328 59.27233417 17 65 C15.32900784 71.04421734 11.97922822 77.07519658 7 81 C3.125 81.9375 3.125 81.9375 0 82 C-0.66 80.35 -1.32 78.7 -2 77 C-1.52949219 76.52691406 -1.05898437 76.05382812 -0.57421875 75.56640625 C3.85215468 70.86510279 7.15748099 66.54060814 8 60 C7.60851964 55.31729265 6.36337695 51.07173557 4 47 C3.34 46.690625 2.68 46.38125 2 46.0625 C-0.74986668 44.60163333 -1.08833304 42.88694538 -2 40 C-0.71937515 38.2925002 0.61767557 36.62626404 2 35 C2.66 35 3.32 35 4 35 C7.17742871 27.7373058 8.95265743 22.55730706 6.0625 15.03515625 C4.55058642 12.13917473 2.38374726 10.20038208 0 8 C-1.4375 5.375 -1.4375 5.375 -2 3 C-1.34 2.01 -0.68 1.02 0 0 Z " fill="#000000" transform="translate(136,0)"/>
<path d="M0 0 C-2.90961724 5.4397192 -6.34045379 10.39872214 -10.08959961 15.29174805 C-12.0833282 18.03297016 -13.04471407 19.45610097 -12.76171875 22.8984375 C-12.38466797 23.93871094 -12.38466797 23.93871094 -12 25 C-10.68 25 -9.36 25 -8 25 C-5.94127731 22.64614349 -5.94127731 22.64614349 -4.125 19.5625 C-3.43664062 18.47582031 -2.74828125 17.38914063 -2.0390625 16.26953125 C-1.02972656 14.65111328 -1.02972656 14.65111328 0 13 C1.15988159 11.24549557 2.3256383 9.49484547 3.5 7.75 C4.22703125 6.65945312 4.22703125 6.65945312 4.96875 5.546875 C5.3090625 5.03640625 5.649375 4.5259375 6 4 C9.00003879 7.58404635 9.65067641 9.76987168 9.46875 14.37109375 C8.00342661 22.58911574 3.21520681 30.36263848 -3.2265625 35.6171875 C-8.7024969 38.34744211 -15.13047352 38.5169207 -21 37 C-24.69028676 32.75617023 -25.56751569 29.78187342 -25.33984375 24.36328125 C-24.87196502 21.10964179 -23.81389448 18.20623908 -22.65625 15.140625 C-21.81070308 12.75569139 -21.81070308 12.75569139 -22 9.125 C-22 6 -22 6 -20.875 4.0625 C-18.24598715 2.57272605 -16.00121386 3 -13 3 C-12.030625 2.505 -11.06125 2.01 -10.0625 1.5 C-6.47372198 -0.25776883 -3.94540705 -0.23672442 0 0 Z " fill="#DB740D" transform="translate(53,177)"/>
<path d="M0 0 C33.66 0 67.32 0 102 0 C102 1.98 102 3.96 102 6 C68.34 6 34.68 6 0 6 C0 4.02 0 2.04 0 0 Z " fill="#FBCD98" transform="translate(76,242)"/>
<path d="M0 0 C1.7421875 1.16796875 1.7421875 1.16796875 3.7421875 4.16796875 C3.06115967 4.30895996 2.38013184 4.44995117 1.6784668 4.59521484 C-1.40591059 5.23771673 -4.48808829 5.8902193 -7.5703125 6.54296875 C-8.64216797 6.7646875 -9.71402344 6.98640625 -10.81835938 7.21484375 C-12.36040039 7.54355469 -12.36040039 7.54355469 -13.93359375 7.87890625 C-15.3553894 8.17740479 -15.3553894 8.17740479 -16.8059082 8.48193359 C-19.48343581 9.09450279 -19.48343581 9.09450279 -22.2578125 11.16796875 C-21.9278125 12.48796875 -21.5978125 13.80796875 -21.2578125 15.16796875 C-12.56518578 14.37393073 -3.91490103 13.27427163 4.7421875 12.16796875 C4.16051416 16.09426383 2.5473769 18.39652556 -0.2578125 21.16796875 C-3.64941406 21.7355957 -3.64941406 21.7355957 -7.6484375 21.65625 C-8.35305115 21.64917526 -9.05766479 21.64210052 -9.78363037 21.6348114 C-12.02612141 21.60690232 -14.26608121 21.54418162 -16.5078125 21.48046875 C-18.03121384 21.45538086 -19.55465447 21.43256853 -21.078125 21.41210938 C-24.80550499 21.35709088 -28.53141156 21.27084679 -32.2578125 21.16796875 C-31.78996338 20.39235596 -31.32211426 19.61674316 -30.84008789 18.81762695 C-27.57286491 13.34637698 -24.47531762 7.87801366 -23.1328125 1.60546875 C-22.8440625 0.47109375 -22.5553125 -0.66328125 -22.2578125 -1.83203125 C-14.72644262 -4.34248788 -7.0600806 -3.37487369 0 0 Z " fill="#D9730D" transform="translate(91.2578125,192.83203125)"/>
<path d="M0 0 C4.16604278 0.40058104 5.36771366 1.28240411 8.25 4.3125 C12.73487019 10.67686781 15.62586181 17.74034874 15.09375 25.62890625 C13.83561816 32.58492364 10.67312097 38.76511641 5.8125 43.875 C2.71851009 45.61065288 0.74578022 45.70974775 -2.75 45.3125 C-3.75 44.3125 -3.75 44.3125 -4.1875 41.5625 C-3.75 38.3125 -3.75 38.3125 -0.9375 35.875 C-0.39222656 35.47152344 0.15304688 35.06804687 0.71484375 34.65234375 C4.26620066 31.55281342 5.11572642 27.36750669 5.6875 22.875 C5.13850224 18.40458966 3.80166364 15.0217874 1.25 11.3125 C0.3425 10.61125 -0.565 9.91 -1.5 9.1875 C-3.75 7.3125 -3.75 7.3125 -4.125 4.125 C-3.63 0.4125 -3.63 0.4125 0 0 Z " fill="#000000" transform="translate(164.75,36.6875)"/>
<path d="M0 0 C4.06978948 0.39132591 5.38030734 1.44280734 8.25 4.3125 C13.17186359 10.92185967 15.75257775 17.45839993 15.0390625 25.76953125 C13.8380557 33.14552585 11.01129992 38.48039752 5.8125 43.8125 C2.71474159 45.625822 0.78370851 45.71405779 -2.75 45.3125 C-3.75 44.3125 -3.75 44.3125 -4.0234375 42.00390625 C-3.68298683 38.65289892 -2.6981953 37.63483109 -0.375 35.25 C3.28758899 31.44422338 5.52234139 28.46415818 5.6875 23.0625 C5.57543928 17.83874633 3.56968766 14.26227002 0.25 10.3125 C-0.513125 9.77625 -1.27625 9.24 -2.0625 8.6875 C-2.619375 8.23375 -3.17625 7.78 -3.75 7.3125 C-4.0625 4.1875 -4.0625 4.1875 -3.75 1.3125 C-2.75 0.3125 -2.75 0.3125 0 0 Z " fill="#000000" transform="translate(109.75,36.6875)"/>
<path d="M0 0 C-0.58167334 3.92629508 -2.1948106 6.22855681 -5 9 C-8.39160156 9.56762695 -8.39160156 9.56762695 -12.390625 9.48828125 C-13.09523865 9.48120651 -13.79985229 9.47413177 -14.52581787 9.46684265 C-16.76830891 9.43893357 -19.00826871 9.37621287 -21.25 9.3125 C-22.77340134 9.28741211 -24.29684197 9.26459978 -25.8203125 9.24414062 C-29.54769249 9.18912213 -33.27359906 9.10287804 -37 9 C-35.73803711 6.5534668 -35.73803711 6.5534668 -34 4 C-31.04335596 3.33589226 -28.5502303 2.98587045 -25.5625 2.8125 C-23.93597127 2.67850455 -22.30966535 2.54177703 -20.68359375 2.40234375 C-19.88679199 2.33901855 -19.08999023 2.27569336 -18.26904297 2.21044922 C-14.26501694 1.83908377 -10.33343164 1.09878364 -6.3828125 0.3671875 C-4 0 -4 0 0 0 Z " fill="#A65000" transform="translate(96,205)"/>
<path d="M0 0 C2.54525979 2.4392073 3.32008328 4.57508679 3.5625 8 C3.23459831 16.29318031 -1.3843758 23.80773642 -6.9375 29.75 C-12.10204056 33.97874347 -17.38349384 33.8401834 -23.7421875 33.76953125 C-27 33 -27 33 -28.9453125 30.44921875 C-29.29335938 29.64097656 -29.64140625 28.83273438 -30 28 C-28.83082031 28.04640625 -27.66164063 28.0928125 -26.45703125 28.140625 C-24.9088798 28.17815594 -23.36070061 28.21455469 -21.8125 28.25 C-21.04357422 28.28351563 -20.27464844 28.31703125 -19.48242188 28.3515625 C-15.65292272 28.41730497 -13.52183654 28.30494152 -10.15234375 26.3359375 C-4.40172235 20.09479122 -1.39184886 12.38869491 -1.10546875 3.9609375 C-1 2 -1 2 0 0 Z " fill="#A14C00" transform="translate(59,181)"/>
<path d="M0 0 C1.98 0 3.96 0 6 0 C6 2.97 6 5.94 6 9 C4.02 9.33 2.04 9.66 0 10 C0 6.7 0 3.4 0 0 Z " fill="#EBC191" transform="translate(199,117)"/>
<path d="M0 0 C-2.34488245 2.94851556 -3.42333987 3.93035506 -7.234375 4.390625 C-8.39453125 4.34421875 -9.5546875 4.2978125 -10.75 4.25 C-11.92046875 4.21390625 -13.0909375 4.1778125 -14.296875 4.140625 C-15.18890625 4.09421875 -16.0809375 4.0478125 -17 4 C-17 3.34 -17 2.68 -17 2 C-5.0106383 -1.67021277 -5.0106383 -1.67021277 0 0 Z " fill="#D16E0C" transform="translate(95,206)"/>
<path d="M0 0 C1.67542976 0.28604898 3.34385343 0.61781233 5 1 C4.34 3.97 3.68 6.94 3 10 C0.525 9.01 0.525 9.01 -2 8 C-1.125 1.125 -1.125 1.125 0 0 Z " fill="#F0C593" transform="translate(197,171)"/>
<path d="M0 0 C0 0.33 0 0.66 0 1 C2.97 1.495 2.97 1.495 6 2 C6 2.33 6 2.66 6 3 C1.71 3 -2.58 3 -7 3 C-7 2.34 -7 1.68 -7 1 C-4.53721199 -0.231394 -2.7204945 -0.07159196 0 0 Z " fill="#C16409" transform="translate(85,207)"/>
</svg>