<svg version="1.1" xmlns="http://www.w3.org/2000/svg" width="24" height="24" viewBox="0 0 512 512">
<path d="M0 0 C1.23266602 0.2331189 1.23266602 0.2331189 2.49023438 0.47094727 C8.08949226 1.61373366 11.01965592 2.73534563 15 7 C17.66441826 11.79595287 18.73940444 15.54689226 18 21 C16.14117648 25.70729846 13.53637324 30.04512587 11.0625 34.44921875 C-4.46797807 62.421875 -7.95156652 94.12357694 0 125 C4.8834942 141.94071698 12.97813389 156.24776269 24 170 C24.57363281 170.72832031 25.14726562 171.45664063 25.73828125 172.20703125 C30.48431389 177.94984402 36.12715616 182.45353994 42 187 C42.85464844 187.68191406 43.70929688 188.36382812 44.58984375 189.06640625 C57.59473509 199.05963854 73.02437154 205.62867111 88.91040039 209.45898438 C97.47899664 211.54602907 103.56141902 214.09451281 108.625 221.5 C110.72312208 225.15073242 112.272084 228.98581961 113.875 232.875 C116.540254 239.26477562 119.73514068 244.56843204 124 250 C124.44730469 250.61101562 124.89460938 251.22203125 125.35546875 251.8515625 C135.50939534 264.89384944 152.41314197 273.2070148 168.53125 275.58984375 C174.7810074 276.29939189 181.09917144 276.13497392 187.37524414 275.89038086 C193.76671098 275.70541507 198.73341143 276.12159348 203.7421875 280.53515625 C208.68889401 287.20468123 208.79608857 292.50867423 207.60791016 300.70458984 C207.07007682 303.38376892 206.46276043 306.03340505 205.8125 308.6875 C205.58618896 309.64156738 205.35987793 310.59563477 205.12670898 311.57861328 C201.77252567 325.42522109 197.22121318 338.75511146 192 352 C191.56171875 353.12664062 191.1234375 354.25328125 190.671875 355.4140625 C182.22457182 376.14393869 169.87618794 394.49296771 156.36279297 412.20556641 C155.16874757 413.77780461 153.99118456 415.36253249 152.81640625 416.94921875 C152.21699219 417.74972656 151.61757813 418.55023438 151 419.375 C150.505 420.04273438 150.01 420.71046875 149.5 421.3984375 C147.77012196 423.24544269 146.37488093 424.13269167 144 425 C142.783125 424.855625 141.56625 424.71125 140.3125 424.5625 C136.05102694 424.44211941 134.07742268 426.16489406 131 429 C128.16489406 432.07742268 126.44211941 434.05102694 126.5625 438.3125 C126.706875 439.529375 126.85125 440.74625 127 442 C125.69263682 446.27071971 122.23255613 448.47690971 118.8125 451.0625 C118.18883545 451.54074219 117.5651709 452.01898438 116.92260742 452.51171875 C115.60772411 453.51591303 114.28970265 454.51601008 112.96875 455.51220703 C111.10435171 456.92114096 109.25477446 458.34768923 107.40625 459.77734375 C97.7942405 467.11642044 87.61117466 473.21872359 77 479 C76.3395166 479.3619043 75.6790332 479.72380859 74.99853516 480.09667969 C42.38404387 497.75124762 4.42891437 509.00783729 -32.79296875 509.203125 C-33.69350983 509.21013931 -34.5940509 509.21715363 -35.5218811 509.22438049 C-38.41047226 509.24177902 -41.29885837 509.2482324 -44.1875 509.25 C-45.17487152 509.25067474 -46.16224304 509.25134949 -47.17953491 509.25204468 C-61.67088264 509.23629657 -75.74020251 508.78341075 -90 506 C-90.89702637 505.83902832 -91.79405273 505.67805664 -92.71826172 505.51220703 C-136.32311969 497.62194853 -177.45990471 477.93235057 -211 449 C-211.74507813 448.36578125 -212.49015625 447.7315625 -213.2578125 447.078125 C-226.76279833 435.26698485 -239.43418743 422.51639772 -250 408 C-250.85649066 406.85005169 -251.71326433 405.70031411 -252.5703125 404.55078125 C-258.6109414 396.35910474 -263.97005071 387.84354922 -269 379 C-269.36448242 378.36819824 -269.72896484 377.73639648 -270.10449219 377.08544922 C-291.48617364 339.72883984 -301.47963447 297.16646183 -301.3125 254.375 C-301.31067719 253.40511139 -301.30885437 252.43522278 -301.30697632 251.4359436 C-301.26157563 237.08208063 -300.74663016 223.12395389 -298 209 C-297.8443457 208.11892578 -297.68869141 207.23785156 -297.52832031 206.33007812 C-289.4868364 161.09873748 -268.54966635 116.62335334 -237 83 C-234 81 -234 81 -230.375 81.4375 C-226.07965328 81.55725874 -224.10219509 79.86243554 -221 77 C-218.00027709 73.85458035 -218.00027709 73.85458035 -216.64453125 69.8671875 C-216.69996094 69.20976563 -216.75539063 68.55234375 -216.8125 67.875 C-217 64 -217 64 -214.875 60.6875 C-182.92684761 27.7689598 -134.42084622 7.93229397 -90 0 C-89.17371094 -0.15243164 -88.34742188 -0.30486328 -87.49609375 -0.46191406 C-59.47185607 -5.41428889 -27.9817508 -5.319262 0 0 Z " fill="#F4B87C" transform="translate(301,3)"/>
<path d="M0 0 C0.495 0.99 0.495 0.99 1 2 C0.12304688 4.54003906 0.12304688 4.54003906 -1.28125 7.765625 C-1.79042969 8.95486572 -2.29960938 10.14410645 -2.82421875 11.36938477 C-3.0979834 12.00208282 -3.37174805 12.63478088 -3.65380859 13.28665161 C-11.58454012 31.68767631 -18.15488059 50.17596509 -21.49194336 70.00146484 C-21.89020695 72.3520047 -22.31836125 74.6912511 -22.76000977 77.03369141 C-25.05978652 89.72121999 -25.5183672 102.12573382 -25.4375 115 C-25.43445862 116.02947754 -25.43141724 117.05895508 -25.42828369 118.11962891 C-25.3573995 134.37825713 -24.55429033 150.07688678 -21 166 C-20.78037598 166.99241699 -20.56075195 167.98483398 -20.33447266 169.00732422 C-10.75388829 210.94356929 8.42084931 248.83276414 37 281 C37.44021484 281.50192871 37.88042969 282.00385742 38.33398438 282.52099609 C71.700219 320.47813234 117.86761444 346.80259092 167 358 C168.10037598 358.25539551 169.20075195 358.51079102 170.33447266 358.77392578 C202.80124782 365.96876622 239.55227225 366.34676924 272 359 C272.86222168 358.81808105 273.72444336 358.63616211 274.61279297 358.44873047 C295.18498996 354.07640598 317.91161989 347.43537666 335.8671875 336.20703125 C336.57101562 335.80871094 337.27484375 335.41039062 338 335 C338.66 335.33 339.32 335.66 340 336 C331.89637395 342.97379358 323.15614907 348.53087636 314 354 C313.35788574 354.38833008 312.71577148 354.77666016 312.05419922 355.17675781 C284.08851708 371.99206656 251.50052158 382.89094009 219 386 C217.87207031 386.11085938 216.74414062 386.22171875 215.58203125 386.3359375 C211.38690915 386.66866959 207.20567786 386.86607618 203 387 C201.95424805 387.03399902 200.90849609 387.06799805 199.83105469 387.10302734 C142.11649815 388.69142741 87.26494058 370.93459674 42 335 C41.45069824 334.5678418 40.90139648 334.13568359 40.33544922 333.69042969 C26.20420514 322.48094514 12.83180079 309.43557572 2 295 C1.57702637 294.44812012 1.15405273 293.89624023 0.71826172 293.32763672 C-6.21971615 284.26623948 -12.38857988 274.93406905 -18 265 C-18.55252441 264.03852051 -18.55252441 264.03852051 -19.11621094 263.05761719 C-48.84509136 210.99984653 -57.57854941 145.46831247 -42.32714844 87.43994141 C-39.19370312 76.06773305 -35.44242746 64.92582696 -31 54 C-30.71962891 53.30229492 -30.43925781 52.60458984 -30.15039062 51.88574219 C-22.53227272 33.15997113 -11.66111755 16.43574836 0 0 Z " fill="#E1A874" transform="translate(64,110)"/>
<path d="M0 0 C1.23266602 0.2331189 1.23266602 0.2331189 2.49023438 0.47094727 C8.08949226 1.61373366 11.01965592 2.73534563 15 7 C17.66441826 11.79595287 18.73940444 15.54689226 18 21 C16.14117648 25.70729846 13.53637324 30.04512587 11.0625 34.44921875 C-4.46797807 62.421875 -7.95156652 94.12357694 0 125 C4.8834942 141.94071698 12.97813389 156.24776269 24 170 C24.57363281 170.72832031 25.14726562 171.45664063 25.73828125 172.20703125 C30.48431389 177.94984402 36.12715616 182.45353994 42 187 C42.85464844 187.68191406 43.70929688 188.36382812 44.58984375 189.06640625 C57.59473509 199.05963854 73.02437154 205.62867111 88.91040039 209.45898438 C97.47899664 211.54602907 103.56141902 214.09451281 108.625 221.5 C110.72312208 225.15073242 112.272084 228.98581961 113.875 232.875 C116.540254 239.26477562 119.73514068 244.56843204 124 250 C124.44730469 250.61101562 124.89460938 251.22203125 125.35546875 251.8515625 C135.50939534 264.89384944 152.41314197 273.2070148 168.53125 275.58984375 C174.7810074 276.29939189 181.09917144 276.13497392 187.37524414 275.89038086 C193.76671098 275.70541507 198.73341143 276.12159348 203.7421875 280.53515625 C208.68889401 287.20468123 208.79608857 292.50867423 207.60791016 300.70458984 C207.07007682 303.38376892 206.46276043 306.03340505 205.8125 308.6875 C205.58618896 309.64156738 205.35987793 310.59563477 205.12670898 311.57861328 C201.77252567 325.42522109 197.22121318 338.75511146 192 352 C191.56171875 353.12664062 191.1234375 354.25328125 190.671875 355.4140625 C182.22457182 376.14393869 169.87618794 394.49296771 156.36279297 412.20556641 C155.16874757 413.77780461 153.99118456 415.36253249 152.81640625 416.94921875 C152.21699219 417.74972656 151.61757813 418.55023438 151 419.375 C150.505 420.04273438 150.01 420.71046875 149.5 421.3984375 C147.7762064 423.23894629 146.35444347 424.10974018 144 425 C140.4375 424.9375 140.4375 424.9375 137 424 C134.93470512 421.60159305 134.16580602 419.86553784 133.57421875 416.77734375 C134.23578323 412.46200115 136.92437282 410.02374685 139.75 406.8125 C150.37330446 394.24346577 159.21450763 380.48692885 167 366 C167.63164062 364.84242188 168.26328125 363.68484375 168.9140625 362.4921875 C179.15604608 343.21481721 185.84586901 322.78143291 190.43359375 301.50244141 C191.16079256 298.28960182 192.04757873 295.15269077 193 292 C192.30551758 292.01047363 191.61103516 292.02094727 190.89550781 292.03173828 C187.68037693 292.07388819 184.4653045 292.09951061 181.25 292.125 C180.15816406 292.14175781 179.06632812 292.15851563 177.94140625 292.17578125 C155.34548761 292.30948491 135.80163568 284.03732822 119 269 C118.06607422 268.20722656 118.06607422 268.20722656 117.11328125 267.3984375 C107.91690691 259.03809719 101.71826058 247.45751515 97.25390625 236.0234375 C96.84011719 235.02570313 96.42632812 234.02796875 96 233 C95.64550781 232.10539063 95.29101562 231.21078125 94.92578125 230.2890625 C91.89643853 226.68826161 88.07293876 226.13994246 83.625 225 C81.80108857 224.49183828 79.9781657 223.98011496 78.15625 223.46484375 C77.269375 223.21718262 76.3825 222.96952148 75.46875 222.71435547 C48.18996488 214.82098865 24.0206498 197.60449933 7 175 C6.11441406 173.8553125 6.11441406 173.8553125 5.2109375 172.6875 C-16.64681258 143.14460492 -24.18554376 106.34001423 -19.3515625 70.1953125 C-16.31220469 52.13091017 -8.84691056 35.8739882 0 20 C0.67755232 18.67216527 1.35124249 17.34213856 2 16 C0.42798828 15.90912109 0.42798828 15.90912109 -1.17578125 15.81640625 C-2.55470048 15.73198262 -3.93360605 15.64733553 -5.3125 15.5625 C-6.00279297 15.52318359 -6.69308594 15.48386719 -7.40429688 15.44335938 C-10.47161535 15.25072585 -13.06968152 14.97677283 -16 14 C-25.4454712 12.8638765 -34.93827674 12.84688192 -44.4375 12.875 C-45.74009766 12.87113281 -47.04269531 12.86726562 -48.38476562 12.86328125 C-60.41030714 12.87525292 -72.25715081 13.34843032 -84.0625 15.75 C-84.94752197 15.9262793 -85.83254395 16.10255859 -86.74438477 16.28417969 C-89.4993875 16.84204401 -92.24992937 17.41834876 -95 18 C-95.87108398 18.18046875 -96.74216797 18.3609375 -97.63964844 18.546875 C-133.8946943 26.16519608 -167.2651436 42.60294103 -195.83203125 66.13671875 C-196.45819336 66.6471875 -197.08435547 67.15765625 -197.72949219 67.68359375 C-198.91731616 68.65815364 -200.09459455 69.64576911 -201.25878906 70.6484375 C-203.95497927 72.86519665 -205.72672931 73.96351969 -209.21875 74.4296875 C-212 74 -212 74 -214.9375 71.9375 C-217 69 -217 69 -216.91796875 65.61328125 C-213.63783839 52.70212983 -189.83134739 40.61832675 -179 34 C-177.93136719 33.31550781 -176.86273438 32.63101563 -175.76171875 31.92578125 C-149.9259669 15.5995471 -119.98151235 5.35384149 -90 0 C-89.17371094 -0.15243164 -88.34742188 -0.30486328 -87.49609375 -0.46191406 C-59.47185607 -5.41428889 -27.9817508 -5.319262 0 0 Z " fill="#010100" transform="translate(301,3)"/>
<path d="M0 0 C3.5 0.875 3.5 0.875 5.4375 2.5625 C6.81959828 5.57059626 6.79448824 7.5824579 6.5 10.875 C5.06640625 13.2265625 5.06640625 13.2265625 3.0625 15.5 C1.96228516 16.79744141 1.96228516 16.79744141 0.83984375 18.12109375 C0.06769531 19.02988281 -0.70445313 19.93867187 -1.5 20.875 C-41.78352634 72.25631356 -60.89432133 135.80780661 -53.4777832 200.95361328 C-53.17978439 203.26581429 -52.84948916 205.57004748 -52.5 207.875 C-52.3870459 208.63619141 -52.2740918 209.39738281 -52.15771484 210.18164062 C-44.4445717 259.53749636 -20.62094294 303.94113717 13.5 339.875 C14.00547363 340.40915527 14.51094727 340.94331055 15.03173828 341.49365234 C22.42476772 349.25091585 30.16562298 356.18801503 38.76464844 362.58398438 C39.89521664 363.42507113 41.02114296 364.27244514 42.14160156 365.12695312 C86.48320997 398.93910407 141.27823675 413.67034546 196.5 411.875 C197.3652832 411.84744629 198.23056641 411.81989258 199.12207031 411.79150391 C203.59835571 411.6265279 208.04071525 411.31328399 212.5 410.875 C213.65886719 410.76414062 214.81773437 410.65328125 216.01171875 410.5390625 C258.87588624 405.6270606 302.63691791 387.30282892 335.640625 359.41796875 C336.64633545 358.57588867 336.64633545 358.57588867 337.67236328 357.71679688 C338.9374134 356.64503148 340.1871019 355.55475554 341.41748047 354.44335938 C344.56658283 351.75770305 346.07033307 350.86654899 350.2734375 350.94921875 C353.92863741 351.99798676 355.46314074 352.64997284 357.5 355.875 C357.57601054 360.05557988 357.18715159 362.11373151 354.36328125 365.2421875 C313.08681208 403.19626693 254.00574326 427.78274911 197.70703125 428.078125 C196.80649017 428.08513931 195.9059491 428.09215363 194.9781189 428.09938049 C192.08952774 428.11677902 189.20114163 428.1232324 186.3125 428.125 C185.32512848 428.12567474 184.33775696 428.12634949 183.32046509 428.12704468 C168.82911736 428.11129657 154.75979749 427.65841075 140.5 424.875 C139.60297363 424.71402832 138.70594727 424.55305664 137.78173828 424.38720703 C94.17688031 416.49694853 53.04009529 396.80735057 19.5 367.875 C18.75492187 367.24078125 18.00984375 366.6065625 17.2421875 365.953125 C3.73720167 354.14198485 -8.93418743 341.39139772 -19.5 326.875 C-20.35649066 325.72505169 -21.21326433 324.57531411 -22.0703125 323.42578125 C-28.1109414 315.23410474 -33.47005071 306.71854922 -38.5 297.875 C-38.86448242 297.24319824 -39.22896484 296.61139648 -39.60449219 295.96044922 C-60.98617364 258.60383984 -70.97963447 216.04146183 -70.8125 173.25 C-70.81067719 172.28011139 -70.80885437 171.31022278 -70.80697632 170.3109436 C-70.76157563 155.95708063 -70.24663016 141.99895389 -67.5 127.875 C-67.3443457 126.99392578 -67.18869141 126.11285156 -67.02832031 125.20507812 C-58.9868364 79.97373748 -38.04966635 35.49835334 -6.5 1.875 C-3.5 -0.125 -3.5 -0.125 0 0 Z " fill="#010100" transform="translate(70.5,84.125)"/>
<path d="M0 0 C7.34245196 5.22244822 12.483624 11.31626174 15 20 C16.01981432 30.25370023 14.42646484 39.52369331 11.80175781 49.36401367 C11.24509983 51.45591465 10.71843151 53.5537841 10.1953125 55.65429688 C7.43226301 66.51426043 4.2416798 77.63730552 -5.87890625 83.734375 C-16.53688604 89.22683084 -25.09056898 90.49304978 -36.625 86.875 C-39.42929755 85.95134791 -42.21469363 84.97914832 -45 84 C-45.66966797 83.77538086 -46.33933594 83.55076172 -47.02929688 83.31933594 C-58.33347287 79.50125879 -68.21431813 73.84815351 -74 63 C-78.76293912 50.96275386 -76.4995626 34.23937549 -71.96875 22.27734375 C-66.64546603 11.79263241 -58.68029671 6.60526074 -47.85839844 2.93432617 C-44.335524 1.8222516 -40.79829021 0.77793815 -37.25 -0.25 C-36.0640625 -0.61351562 -34.878125 -0.97703125 -33.65625 -1.3515625 C-22.18168739 -4.68369531 -10.72762751 -6.24553656 0 0 Z " fill="#010000" transform="translate(425,41)"/>
<path d="M0 0 C9.22815193 6.67792191 15.41156461 14.83810443 18 26 C18.28368905 28.81920243 18.33435092 31.60543044 18.3125 34.4375 C18.30512817 35.5656311 18.30512817 35.5656311 18.29760742 36.71655273 C18.08750125 46.62171206 14.14193989 54.44386612 7.5 61.75 C-1.87986382 70.19187744 -11.69684863 74.77544101 -24.56640625 74.28125 C-36.68255953 72.8809883 -46.31119505 66.27538374 -54 57 C-55.6312324 54.42487941 -56.90818373 51.84304633 -58 49 C-58.35578125 48.11054688 -58.7115625 47.22109375 -59.078125 46.3046875 C-61.58068727 37.33363801 -61.45504474 25.57809804 -57.3203125 17.1640625 C-51.50265993 7.62862012 -43.79035608 -0.48522715 -33.05859375 -4.3359375 C-21.80301461 -6.77967754 -9.91684284 -6.18718475 0 0 Z " fill="#040302" transform="translate(333,326)"/>
<path d="M0 0 C11.07906563 6.51480268 17.18092924 14.79278771 21.25 27 C22.30761002 40.88490874 20.48724224 51.93824193 11.26171875 62.96484375 C2.74225124 71.58356719 -6.08171682 75.24017579 -18.0625 75.5 C-29.76507663 75.42604604 -38.20020944 71.48289022 -46.625 63.328125 C-54.15561946 55.07766692 -58.25538109 44.62565352 -58.01953125 33.390625 C-56.74996109 22.13008968 -51.86512478 12.29977481 -43.2890625 4.8671875 C-30.98760907 -4.1791121 -14.0521452 -7.17045732 0 0 Z " fill="#030201" transform="translate(161.75,140)"/>
<path d="M0 0 C5.325936 2.662968 9.88258246 6.52898055 14.5 10.25 C15.84578125 11.27287109 15.84578125 11.27287109 17.21875 12.31640625 C21.94754022 16.3245418 24.0928821 21.60920282 24.7734375 27.6953125 C25.26750309 40.73104307 18.08947576 48.47364598 9.8515625 57.734375 C4.59733244 63.39468419 -0.32314698 68.55438326 -8.26171875 69.62109375 C-17.28397439 69.82587125 -23.72210113 67.85999225 -30.3125 61.5625 C-33.14466839 57.27378786 -35.39010628 52.93248344 -37.5 48.25 C-38.04398437 47.07566406 -38.58796875 45.90132812 -39.1484375 44.69140625 C-43.03089083 35.97279589 -45.58214209 27.95278619 -42.64453125 18.49609375 C-37.83729896 7.4870396 -28.06012553 3.6849638 -17.5 -0.75 C-11.56010088 -2.72996637 -5.80427688 -2.09598888 0 0 Z " fill="#010100" transform="translate(457.5,151.75)"/>
<path d="M0 0 C0.63292969 0.391875 1.26585937 0.78375 1.91796875 1.1875 C2.54058594 1.538125 3.16320312 1.88875 3.8046875 2.25 C10.68182252 6.54634465 14.81418853 13.47363918 16.91796875 21.1875 C18.02776112 32.07895067 16.6349758 40.87739468 9.73046875 49.5 C3.53197725 56.09925604 -3.6643494 59.21652746 -12.61547852 59.53100586 C-22.61801802 59.6816219 -29.41117307 57.80130351 -36.95703125 50.875 C-44.35518078 42.9010511 -45.63525543 34.00277398 -45.4140625 23.5 C-44.99099247 15.46341045 -41.54234452 10.2828001 -35.83203125 4.8125 C-25.58952348 -3.48225219 -12.21715979 -6.60139216 0 0 Z " fill="#030201" transform="translate(174.08203125,307.8125)"/>
<path d="M0 0 C3.8308962 2.59299667 6.86979395 5.29948488 8.625 9.6875 C9.57999788 17.80498201 7.61079997 24.94864296 5.625 32.75 C5.32464844 33.98685547 5.02429688 35.22371094 4.71484375 36.49804688 C0.30598765 54.04904638 0.30598765 54.04904638 -7.125 58.8125 C-16.15801051 61.8235035 -24.47061117 59.17025454 -32.9375 55.6875 C-34.43313477 55.11902344 -34.43313477 55.11902344 -35.95898438 54.5390625 C-42.78247538 51.81511399 -47.71847773 48.96922028 -51.5 42.4375 C-53.589457 33.66178058 -52.0044612 20.96874448 -47.61328125 13.10546875 C-42.1477034 6.48536434 -34.66356944 4.52580019 -26.6875 2.25 C-25.97529297 2.04181641 -25.26308594 1.83363281 -24.52929688 1.61914062 C-6.26148561 -3.67371296 -6.26148561 -3.67371296 0 0 Z " fill="#F2B77B" transform="translate(416.125,54.1875)"/>
<path d="M0 0 C5.99622241 2.95102045 10.92669513 7.64254316 13.6171875 13.80078125 C15.63121857 21.26156301 14.99850518 29.32706999 11.23828125 36.1015625 C7.66431283 41.46251513 3.40690214 45.02473455 -2.76171875 47.1015625 C-9.70510447 48.01516588 -16.86886565 48.23136921 -23.01953125 44.49609375 C-29.10848866 39.62219734 -33.92166166 33.67991915 -35.109375 25.79296875 C-35.60458856 17.65368955 -32.48628076 11.60457079 -27.57421875 5.2890625 C-18.67408489 -1.63326383 -10.78925535 -3.98773859 0 0 Z " fill="#CA8F6C" transform="translate(153.76171875,152.8984375)"/>
<path d="M0 0 C5.54934672 3.86802101 8.4493355 8.03188872 10.23046875 14.5546875 C11.0430668 22.17043201 11.10840014 29.33771613 6.23046875 35.5546875 C0.65139299 41.54523522 -5.22264251 45.54608194 -13.58203125 46.0546875 C-20.38051041 45.80671866 -25.85485489 43.17843498 -30.8828125 38.65234375 C-37.03548373 32.01561142 -38.31372354 25.75253026 -38.140625 16.8125 C-37.35569232 9.92161735 -34.17691567 5.38488792 -28.83203125 1.1171875 C-19.67386881 -5.02797354 -9.62621178 -5.41761362 0 0 Z " fill="#CB906D" transform="translate(325.76953125,339.4453125)"/>
<path d="M0 0 C5.87565198 3.49800467 10.58774209 8.96339523 12.625 15.5 C13.49300262 24.40548147 12.81889671 30.76422212 7.8125 38.1875 C3.24721022 43.01366348 -1.75148624 45.73665178 -8.375 46.5 C-15.65653509 46.60435321 -22.40670693 45.16860427 -27.875 40.11328125 C-32.67643402 34.66879803 -35.375 28.79648068 -35.375 21.5 C-34.43605503 12.85877205 -30.75324302 7.40651138 -24.25390625 1.796875 C-17.47404565 -2.8827793 -7.503241 -3.31845884 0 0 Z " fill="#000000" transform="translate(499.375,89.5)"/>
<path d="M0 0 C6.42298819 3.74674311 10.48715346 7.64399954 13 14.75 C14.09490368 22.47095868 13.65736685 29.3365768 9 35.75 C4.6261641 41.09579943 -0.238154 44.23637248 -7.08984375 45.171875 C-14.45855501 45.48141246 -20.33065586 44.71210202 -26 39.75 C-31.76730444 32.78777836 -33.43594764 27.10419242 -33.3359375 18.11328125 C-32.73520057 12.09892662 -30.41405963 7.97149845 -25.9921875 3.90234375 C-18.65409624 -1.82461677 -8.91251745 -3.62810445 0 0 Z " fill="#030201" transform="translate(258,194.25)"/>
<path d="M0 0 C5.50470723 3.25835735 10.76986017 7.17379502 15 12 C15.9190204 16.44193192 15.89795754 18.56280506 13.484375 22.42578125 C11.41500177 25.04508634 9.23283814 27.51906874 7 30 C6.31808594 30.85851562 5.63617188 31.71703125 4.93359375 32.6015625 C1.87505313 36.37236601 -0.04728433 38.66089781 -4.6875 40.3125 C-8.90585762 39.91454173 -10.0048444 38.99058981 -13 36 C-14.72471858 33.02779968 -16.02125004 29.9303462 -17.3125 26.75 C-17.67150391 25.92886719 -18.03050781 25.10773438 -18.40039062 24.26171875 C-20.62245414 18.92030132 -21.52522444 14.78387398 -21 9 C-17.04093056 2.97532912 -7.1081027 -2.25472075 0 0 Z " fill="#F2B77B" transform="translate(451,166)"/>
<path d="M0 0 C-0.06960938 1.30453125 -0.13921875 2.6090625 -0.2109375 3.953125 C-0.59983738 14.34301805 -0.80740969 23.44744223 6 32 C10.99467348 37.28908547 16.49682453 39.78173411 23.25 42.25 C25.02713459 42.91897883 26.80322565 43.59073812 28.578125 44.265625 C29.35575195 44.55211914 30.13337891 44.83861328 30.93457031 45.13378906 C33 46 33 46 36 48 C30.61688521 52.51017725 26.97683477 53.36038087 20.08447266 53.29003906 C14.75683594 52.78907085 10.10407382 50.89737446 5.1875 48.875 C3.69186523 48.30652344 3.69186523 48.30652344 2.16601562 47.7265625 C-4.65747538 45.00261399 -9.59347773 42.15672028 -13.375 35.625 C-15.45098606 26.90585853 -13.9719883 13.89139742 -9.3125 6.22265625 C-3.91127939 0 -3.91127939 0 0 0 Z " fill="#DFA773" transform="translate(378,61)"/>
<path d="M0 0 C3.77702297 2.63513231 6.60374735 5.7074947 8.6875 9.875 C9.45075018 16.71922703 8.87862923 21.36035628 4.6875 26.875 C-0.6088584 30.98237998 -4.60489971 32.43396669 -11.3125 31.875 C-16.18071679 30.0049543 -19.38752742 27.20829272 -22.3125 22.875 C-22.725 22.276875 -23.1375 21.67875 -23.5625 21.0625 C-25.0360582 16.7646219 -25.15887292 12.880141 -23.40234375 8.71875 C-17.94701079 -0.68336725 -10.28243926 -3.49214918 0 0 Z " fill="#CB8F6D" transform="translate(167.3125,321.125)"/>
<path d="M0 0 C0.14695313 1.16015625 0.14695313 1.16015625 0.296875 2.34375 C1.59308503 11.3725233 3.85657244 19.76634859 11 26 C18.25972311 31.0576071 25.25724021 33.11504351 34 34 C29.50368618 38.90506962 25.52097817 42.58502757 18.71875 43.38671875 C10.29775213 43.64762574 4.30652779 43.01884476 -1.9296875 37.19921875 C-7.64234746 31.09544307 -10.6803077 25.09257704 -10.421875 16.62890625 C-9.72199558 12.26762063 -5.63461781 0 0 0 Z " fill="#B27C5D" transform="translate(129,157)"/>
<path d="M0 0 C0.12375 1.9490625 0.12375 1.9490625 0.25 3.9375 C1.30697463 13.17516868 5.93526958 21.85445841 13.15234375 27.76171875 C19.71524456 32.15471394 26.22362243 33.29305658 34 34 C30.18458194 39.41543208 26.4117609 42.17244395 20 44 C12.37264073 45.29956599 6.296476 43.37694731 0 39 C-5.50314263 34.04615441 -8.48063111 29.35723165 -9.37109375 21.88671875 C-9.54659823 13.43153257 -8.20141792 7.5592029 -2.39453125 1.2578125 C-1 0 -1 0 0 0 Z " fill="#B27C5D" transform="translate(297,341)"/>
<path d="M0 0 C2 1 2 1 3 3 C3.70779977 8.57392317 3.70779977 8.57392317 3 11 C-2.72208648 16.48853193 -12.54862141 22.30929932 -20.6875 22.6875 C-24 22 -24 22 -26 20.375 C-27.3181446 17.24440659 -27.55014903 15.3696628 -27 12 C-20.818063 4.79729789 -9.75149567 -1.83990484 0 0 Z " fill="#050402" transform="translate(332,265)"/>
<path d="M0 0 C2.4375 1.5625 2.4375 1.5625 4 4 C4.5625 7.5 4.5625 7.5 4 11 C0.08067428 14.81236556 -4.61235393 17.00374145 -9.5 19.3125 C-10.24636719 19.68439453 -10.99273437 20.05628906 -11.76171875 20.43945312 C-17.25663094 23.0507521 -17.25663094 23.0507521 -20.91796875 22.80078125 C-23.43491953 21.83272326 -24.54414411 21.29871982 -26 19 C-26.4375 15.5625 -26.4375 15.5625 -26 12 C-22.91300964 8.15278067 -18.96327765 6.03832501 -14.6875 3.75 C-14.04876953 3.38648438 -13.41003906 3.02296875 -12.75195312 2.6484375 C-8.36574131 0.28423823 -5.09200333 -0.53302991 0 0 Z " fill="#040302" transform="translate(219,393)"/>
<path d="M0 0 C3.66232959 3.81614744 5.91425428 8.31120674 8.25 13 C8.61351562 13.69867188 8.97703125 14.39734375 9.3515625 15.1171875 C11.21457802 18.8292109 12.65122203 21.74379885 12 26 C10.35273715 28.53953023 9.0639889 29.70012839 6.12890625 30.52734375 C3.81312458 30.77687032 2.22234411 30.71257527 0 30 C-2.36507441 27.70659451 -3.58211112 24.94380738 -5 22 C-5.54011719 21.01257813 -6.08023437 20.02515625 -6.63671875 19.0078125 C-11.55516912 9.81294724 -11.55516912 9.81294724 -11 4 C-8.07075041 -0.45245938 -5.11843736 -0.822606 0 0 Z " fill="#040302" transform="translate(396,305)"/>
<path d="M0 0 C4.03527748 3.17979866 6.0162365 7.366107 8.25 11.875 C8.61351563 12.56980469 8.97703125 13.26460937 9.3515625 13.98046875 C11.42726359 18.12406755 12.59623405 21.25818567 12 26 C10.4375 28.375 10.4375 28.375 8 30 C4.5 30.5625 4.5 30.5625 1 30 C-2.66232959 26.18385256 -4.91425428 21.68879326 -7.25 17 C-7.61351563 16.30132812 -7.97703125 15.60265625 -8.3515625 14.8828125 C-10.2132096 11.17351565 -11.6584854 8.25304098 -11 4 C-8.00375133 -0.43444803 -5.14731601 -0.73533086 0 0 Z " fill="#040302" transform="translate(91,241)"/>
<path d="M0 0 C1.55772535 3.02920526 2.92194848 6.10656869 4.2421875 9.24609375 C4.66886719 10.24833984 5.09554688 11.25058594 5.53515625 12.28320312 C6.4257884 14.37995374 7.31124106 16.47891226 8.19140625 18.58007812 C10.32146662 23.55981386 12.22667771 28.00729851 16 32 C11.03571429 36.96428571 11.03571429 36.96428571 6.375 37.125 C1.89128208 35.63042736 0.19316302 33.2965245 -1.97314453 29.12695312 C-2.95584078 27.0007282 -3.86173805 24.85478292 -4.75 22.6875 C-5.06582031 21.96626953 -5.38164062 21.24503906 -5.70703125 20.50195312 C-7.8052048 15.4381793 -8.47513362 11.48185419 -8 6 C-5.78825606 2.99834751 -3.40357628 1.45867555 0 0 Z " fill="#DFA773" transform="translate(438,169)"/>
<path d="M0 0 C4.33221777 1.06485185 6.65191546 2.91422215 9.65625 6.0390625 C10.14931641 6.50054687 10.64238281 6.96203125 11.15039062 7.4375 C13.87324596 10.18679083 14.70051804 11.75201954 15.13671875 15.62890625 C14.71875 18.9140625 14.71875 18.9140625 13.09375 21.3515625 C10.71875 22.9140625 10.71875 22.9140625 7.96875 23.6015625 C2.99630241 22.54969859 0.21429844 19.4616723 -3.28125 15.9140625 C-4.10625 15.0890625 -4.93125 14.2640625 -5.78125 13.4140625 C-7.82838574 10.00216959 -7.84980139 7.82285329 -7.28125 3.9140625 C-5.10142659 0.42634504 -4.13539408 -0.10830794 0 0 Z " fill="#050302" transform="translate(208.28125,80.0859375)"/>
<path d="M0 0 C3.01642837 2.00907636 5.48987075 4.39730633 8 7 C9.2375 8.2684375 9.2375 8.2684375 10.5 9.5625 C12.41815219 12.67949731 12.6124175 14.40204719 12 18 C10.4375 20.375 10.4375 20.375 8 22 C3.58111799 22.55762083 1.62338872 22.42872751 -2.08984375 19.875 C-3.06307787 18.94106512 -4.01219003 17.98143796 -4.9375 17 C-5.42041504 16.50177734 -5.90333008 16.00355469 -6.40087891 15.49023438 C-8.99626986 12.63759303 -10.7507566 10.41732142 -10.875 6.5 C-10 3 -10 3 -8.9375 1 C-5.63881286 -0.7025482 -3.67243079 -0.60203783 0 0 Z " fill="#030201" transform="translate(195,265)"/>
<path d="M0 0 C3.5 0.875 3.5 0.875 5.5 1.9375 C7.2025482 5.23618714 7.10203783 7.20256921 6.5 10.875 C4.49092364 13.89142837 2.10269367 16.36487075 -0.5 18.875 C-1.7684375 20.1125 -1.7684375 20.1125 -3.0625 21.375 C-6.17949731 23.29315219 -7.90204719 23.4874175 -11.5 22.875 C-13.875 21.3125 -13.875 21.3125 -15.5 18.875 C-16.05762083 14.45611799 -15.92872751 12.49838872 -13.375 8.78515625 C-12.44106512 7.81192213 -11.48143796 6.86280997 -10.5 5.9375 C-9.75266602 5.21312744 -9.75266602 5.21312744 -8.99023438 4.47412109 C-6.13759303 1.87873014 -3.91732142 0.1242434 0 0 Z " fill="#030201" transform="translate(248.5,128.125)"/>
<path d="M0 0 C3.63326668 0.60554445 4.74144325 1.6558915 7 4.5 C8.84206499 8.18412999 8.3617633 12.46982986 8 16.5 C6.38727433 20.18623011 5.369675 21.25355 2 23.5 C-1.19590413 23.99167756 -2.4946053 23.86907723 -5.12890625 21.9453125 C-7.71245106 18.5689053 -7.53314813 16.20981225 -7.5 12 C-7.51546875 10.03546875 -7.51546875 10.03546875 -7.53125 8.03125 C-7 4.5 -7 4.5 -5.15625 2.0625 C-3 0.5 -3 0.5 0 0 Z " fill="#080604" transform="translate(288,432.5)"/>
<path d="M0 0 C2.20521726 2.20521726 2.53528072 3.37348252 3.375 6.3125 C5.52015161 12.91703083 8.93975063 16.4652828 14.828125 19.99609375 C18.22539371 21.566414 21.27973188 21.80069992 25 22 C21.2048359 26.216849 18.26202341 27.74866407 12.625 28.375 C6.97989863 27.791024 3.51183097 25.63441186 -0.3125 21.5 C-0.869375 20.675 -1.42625 19.85 -2 19 C-2.4125 18.401875 -2.825 17.80375 -3.25 17.1875 C-4.67975171 13.01739083 -4.85060574 8.96378978 -3.1015625 4.92578125 C-2.13816649 3.24154638 -1.07628692 1.61443038 0 0 Z " fill="#AE7A5B" transform="translate(147,325)"/>
<path d="M0 0 C2.375 1.625 2.375 1.625 4 4 C4.72125695 8.40768137 4.52001338 10.25937488 1.9375 13.9375 C-1 16 -1 16 -4.5 16.625 C-8.95850936 15.82883761 -10.40783917 14.69186542 -13 11 C-13.5625 7.4375 -13.5625 7.4375 -13 4 C-9.27634817 -0.87926791 -5.81147583 -1.54182012 0 0 Z " fill="#EBB178" transform="translate(493,104)"/>
<path d="M0 0 C2.5 1.5 2.5 1.5 4 4 C4.791013 8.02098277 4.62153384 10.96411027 2.5 14.5 C-1.03588973 16.62153384 -3.97901723 16.791013 -8 16 C-10.5 14.5 -10.5 14.5 -12 12 C-12.791013 7.97901723 -12.62153384 5.03588973 -10.5 1.5 C-6.96411027 -0.62153384 -4.02098277 -0.791013 0 0 Z " fill="#CA8F6C" transform="translate(252,208)"/>
<path d="M0 0 C0.99 0.99 1.98 1.98 3 3 C1.46356148 6.68069887 -0.78150945 8.98775204 -3.625 11.75 C-4.44226563 12.54921875 -5.25953125 13.3484375 -6.1015625 14.171875 C-6.72804688 14.77515625 -7.35453125 15.3784375 -8 16 C-10.475 15.01 -10.475 15.01 -13 14 C-13 13.01 -13 12.02 -13 11 C-10.6640625 9.31640625 -10.6640625 9.31640625 -7.625 7.5625 C-2.70842268 4.76671101 -2.70842268 4.76671101 0 0 Z " fill="#E0A773" transform="translate(435,422)"/>
<path d="M0 0 C1.32 0.66 2.64 1.32 4 2 C3.62488281 2.4125 3.24976562 2.825 2.86328125 3.25 C-0.95796035 7.56213158 -4.08513088 12.03440438 -7 17 C-8.32 15.68 -9.64 14.36 -11 13 C-9.46356148 9.31930113 -7.21849055 7.01224796 -4.375 4.25 C-3.55773437 3.45078125 -2.74046875 2.6515625 -1.8984375 1.828125 C-0.95871094 0.92320313 -0.95871094 0.92320313 0 0 Z " fill="#E2A974" transform="translate(85,74)"/>
</svg>