<svg version="1.1" xmlns="http://www.w3.org/2000/svg" width="24" height="24" viewBox="0 0 554 554">
<path d="M0 0 C182.82 0 365.64 0 554 0 C554 182.82 554 365.64 554 554 C371.18 554 188.36 554 0 554 C0 371.18 0 188.36 0 0 Z " fill="#010201" transform="translate(0,0)"/>
<path d="M0 0 C110.88 0 221.76 0 336 0 C336 0.33 336 0.66 336 1 C335.27296875 1.09796875 334.5459375 1.1959375 333.796875 1.296875 C317.16591831 3.77019676 303.63522905 9.88263937 291 21 C289.83984375 22.01707031 289.83984375 22.01707031 288.65625 23.0546875 C277.95265817 33.06181274 269.97402086 46.8630644 267.875 61.375 C266.69748751 67.45440437 266.69748751 67.45440437 263.7578125 69.75390625 C261 70.9375 261 70.9375 258.046875 71.9453125 C244.46334701 76.64730296 237.44816346 86.3957752 231.3828125 98.73046875 C228.90577319 104.58719728 228.78928224 109.97466281 228.75 116.25 C228.729375 117.05824219 228.70875 117.86648437 228.6875 118.69921875 C228.65415955 123.90866425 229.4587247 128.06332829 231.27441406 132.94042969 C232.20597518 135.58465904 232.6442469 138.22512585 233 141 C232.37657715 141.0093457 231.7531543 141.01869141 231.11083984 141.02832031 C210.39220033 141.41772537 192.96370347 143.7064051 177.28515625 158.58984375 C165.04978585 171.49449937 160.69679536 186.96531959 160.83203125 204.46484375 C161.02358305 207.35593945 161.48160642 210.15090886 162 213 C161.00371582 213.05945801 161.00371582 213.05945801 159.98730469 213.12011719 C138.6348441 214.46066362 122.57211821 217.29488152 107.22265625 233.3984375 C96.78268663 245.6181559 93.79804058 259.24295187 93.9375 274.9375 C93.94201172 275.90751953 93.94652344 276.87753906 93.95117188 277.87695312 C93.9628685 280.2513676 93.97925914 282.62565021 94 285 C93.34700928 285.12479736 92.69401855 285.24959473 92.02124023 285.37817383 C75.48500665 288.60011156 61.09471947 294.56641233 51.05859375 308.7421875 C41.9188982 322.82380611 37.63096131 337.64994549 40.62109375 354.5 C44.77438867 371.03934334 53.7030553 383.84633018 68 393 C68.82371094 393.52980469 69.64742188 394.05960937 70.49609375 394.60546875 C72.99548848 395.99748734 75.24760061 396.80989079 78 397.5625 C79.67143574 398.02475645 81.33824439 398.50406981 83 399 C84.26674561 399.37088745 84.26674561 399.37088745 85.55908203 399.74926758 C88 401 88 401 89.00732422 403.10595703 C89.27826904 404.41862549 89.27826904 404.41862549 89.5546875 405.7578125 C89.77342529 406.76021973 89.99216309 407.76262695 90.2175293 408.79541016 C90.54297729 410.44355713 90.54297729 410.44355713 90.875 412.125 C91.24008667 413.83695557 91.24008667 413.83695557 91.61254883 415.58349609 C92.14114675 418.06562255 92.6610312 420.5496166 93.17333984 423.03515625 C94.01930863 427.12631469 94.92133346 431.2040831 95.83203125 435.28125 C98.49877598 447.26059371 101.10268829 459.23406025 103.27709961 471.31420898 C104.0142708 475.07276134 104.90767352 478.73234489 105.875 482.4375 C107.64062731 489.26847668 109.07705238 496.13966235 110.4375 503.0625 C112.10464476 511.53479052 113.80897444 519.99571593 115.625 528.4375 C115.91588501 529.81143921 115.91588501 529.81143921 116.21264648 531.21313477 C118.53673571 544.44601481 118.53673571 544.44601481 127 554 C85.09 554 43.18 554 0 554 C0 371.18 0 188.36 0 0 Z " fill="#FEFEFE" transform="translate(0,0)"/>
<path d="M0 0 C68.31 0 136.62 0 207 0 C207 182.82 207 365.64 207 554 C164.76 554 122.52 554 79 554 C79.99 553.34 80.98 552.68 82 552 C89.96519485 545.82697399 90.45523674 534.24428579 92.25 524.875 C94.14909742 515.18513467 96.12256415 505.5134434 98.16687012 495.85333252 C98.46798079 494.42981635 98.76821862 493.00611522 99.06750488 491.58221436 C100.45913649 484.96481208 101.8780668 478.36382474 103.55859375 471.8125 C105.12008615 465.69167638 106.29277655 459.52271792 107.4375 453.3125 C108.95345139 445.26612139 110.48916808 437.24301667 112.49121094 429.30151367 C113.50040025 425.27913094 114.32588379 421.26541952 115.04296875 417.1796875 C115.23310547 416.17647461 115.42324219 415.17326172 115.61914062 414.13964844 C115.99007385 412.17217273 116.3301264 410.19855123 116.63476562 408.21972656 C117.16265885 405.53481909 117.67411684 403.39624403 119 401 C121.84982278 399.25901997 124.76302035 398.698298 128 398 C137.36599343 394.06607893 144.89217004 389.33931101 152 382 C152.886875 381.0925 153.77375 380.185 154.6875 379.25 C165.70017868 363.77272186 168.69227884 347.36103288 165.61328125 328.64990234 C162.26503421 314.8450798 153.10477903 302.17613849 141.05322266 294.80175781 C132.16727508 289.61888993 123.24919452 286.30813759 113 285 C113.03480469 283.71867187 113.06960938 282.43734375 113.10546875 281.1171875 C113.48925279 261.23177421 110.59219191 245.12052297 96.25 230.1484375 C81.36468683 215.93503083 64.78071413 213.56184203 45 213 C45.16113281 212.13761719 45.32226562 211.27523437 45.48828125 210.38671875 C47.92714276 194.24555137 44.55150674 178.66492207 35.25 165.25 C25.8181801 153.04824042 13.09486272 145.26889189 -2 142 C-6.20785143 141.54594441 -10.39536073 141.40243765 -14.625 141.3125 C-15.72457031 141.27833984 -16.82414062 141.24417969 -17.95703125 141.20898438 C-20.63791863 141.12739215 -23.31851548 141.057959 -26 141 C-25.125 135.2421875 -25.125 135.2421875 -24 133.0625 C-19.71820954 124.23130718 -20.99760358 110.3401529 -23.625 101.0625 C-25.60852235 95.38624988 -28.35259728 90.7496398 -32 86 C-32.5775 85.13375 -33.155 84.2675 -33.75 83.375 C-39.91501685 76.86748222 -47.94512253 72.71895406 -56 69 C-55.28368246 56.10628434 -47.45006677 46.01834564 -38.375 37.3125 C-29.52426201 29.91643776 -17.93209867 25.01896421 -6.4375 24.5625 C-1.63795609 24.24804712 1.96339921 23.83653029 6 21 C8.96477294 16.5528406 8.76344528 12.21433123 8 7 C5.5659688 3.77655328 3.33795435 2.2253029 0 0 Z " fill="#FEFEFE" transform="translate(347,0)"/>
<path d="M0 0 C1.22541504 -0.00511093 2.45083008 -0.01022186 3.71337891 -0.01548767 C7.05439431 -0.02695962 10.39516063 -0.02946482 13.73617816 -0.02692437 C16.53421999 -0.02584969 19.33223929 -0.03075061 22.13027626 -0.03552979 C28.73546847 -0.0465989 35.3406038 -0.04707688 41.94580078 -0.04101562 C48.74073079 -0.0349758 55.53545374 -0.04729291 62.33034843 -0.06858569 C68.18284461 -0.08624524 74.03527513 -0.09219626 79.88779694 -0.08894795 C83.3750838 -0.08714207 86.86222288 -0.08970143 90.3494854 -0.10366249 C94.24088434 -0.11866075 98.13202273 -0.10923271 102.0234375 -0.09765625 C103.16605545 -0.10529999 104.3086734 -0.11294373 105.48591614 -0.12081909 C116.66586379 -0.04748915 125.10386723 2.82515527 133.57641602 10.2746582 C135.98682323 13.09523976 137.84662741 15.99776494 139.57641602 19.2746582 C139.91543945 19.91145508 140.25446289 20.54825195 140.60375977 21.2043457 C144.43035696 29.70397635 142.81352938 38.60006884 140.57641602 47.2746582 C139.87588545 47.27520297 139.17535488 47.27574774 138.45359612 47.27630901 C121.40209866 47.2912813 104.35089127 47.33374603 87.29954338 47.40674877 C79.05358807 47.44139073 70.80779979 47.46675324 62.56176758 47.47021484 C55.37386152 47.47325586 48.18625299 47.49376458 40.99846184 47.53518277 C37.19306628 47.55650234 33.38809359 47.56911899 29.58263779 47.560812 C25.99877408 47.55326487 22.4157667 47.56911972 18.83205986 47.60271835 C16.89378448 47.6148583 14.95540356 47.60237044 13.01713562 47.58909607 C5.92463639 47.54723639 5.92463639 47.54723639 -0.18966675 50.69087219 C-3.51870684 54.5412956 -3.81498808 56.98202325 -3.78295898 61.9465332 C-3.1781412 65.86470057 -1.25481641 67.57824637 1.57641602 70.2746582 C4.55843018 71.76566529 7.25523433 71.40277233 10.58312988 71.40596008 C11.67766881 71.40913365 11.67766881 71.40913365 12.79431963 71.41237134 C15.25229892 71.41838779 17.71022711 71.41737 20.16821289 71.41650391 C21.92566007 71.41953445 23.68310646 71.42305561 25.44055176 71.42703247 C29.23286527 71.43493214 33.02516934 71.4400705 36.81748962 71.44332314 C42.81890751 71.44922827 48.82026592 71.46576562 54.82165527 71.48466492 C56.87593838 71.49100279 58.93022152 71.49732841 60.9845047 71.50364208 C62.0135193 71.50680789 63.04253389 71.5099737 64.10273075 71.51323545 C78.07767242 71.55530665 92.05258715 71.5882674 106.02758789 71.60058594 C115.44877845 71.60897586 124.86982253 71.63150449 134.29093981 71.6699416 C139.27567893 71.68967744 144.26019918 71.70211519 149.24497986 71.69710732 C153.94004107 71.69244836 158.63468832 71.70633435 163.32966614 71.73411942 C165.04766481 71.74101128 166.76570646 71.74117944 168.48370361 71.73391914 C181.31957406 71.68517809 190.97320857 72.96270358 200.59985352 82.13012695 C207.72301688 89.85861843 210.025615 97.84081923 209.83032227 108.2824707 C209.32236727 114.26852496 207.25907193 119.10177902 204.32641602 124.2746582 C202.36055465 128.07734756 202.19247715 131.02348006 202.88891602 135.22387695 C204.20352174 139.14528608 206.96293485 141.46791762 210.57641602 143.2746582 C212.52590639 143.39316491 214.47905587 143.45372352 216.43188477 143.4855957 C217.61202148 143.51395508 218.7921582 143.54231445 220.00805664 143.5715332 C222.49228868 143.6232073 224.97668399 143.66759666 227.46118164 143.7043457 C233.91599087 143.87264057 238.90078982 144.11057247 244.57641602 147.2746582 C245.38208008 147.71165039 246.18774414 148.14864258 247.01782227 148.59887695 C256.10510936 154.43950899 260.97782795 161.76285564 263.57641602 172.2746582 C264.80424503 181.49027373 262.18104897 189.70010507 257.08422852 197.3605957 C251.33034284 204.6647511 243.77163747 209.74019967 234.57641602 211.2746582 C232.46215028 211.36621357 230.34533796 211.40547874 228.22909355 211.40887928 C226.94054903 211.41333712 225.65200451 211.41779497 224.32441318 211.4223879 C222.89644105 211.42229861 221.46846893 211.42210877 220.04049683 211.42182922 C218.52196888 211.42512961 217.00344181 211.42885555 215.48491585 211.4329707 C211.31026728 211.4429788 207.13563308 211.44670557 202.96097422 211.44936001 C198.45909929 211.45326655 193.95723571 211.4628446 189.45536804 211.47157288 C178.58300265 211.49132654 167.71063634 211.50140173 156.83825749 211.51030067 C151.71723539 211.51468503 146.59621431 211.52005143 141.47519302 211.52528954 C124.45040285 211.54230009 107.42561333 211.55679436 90.40081596 211.56403828 C85.98376337 211.56594814 81.56671078 211.56786848 77.1496582 211.56982422 C75.50292231 211.57054983 75.50292231 211.57054983 73.82291903 211.5712901 C56.03798837 211.57959083 38.25312496 211.60492926 20.46822368 211.6374049 C2.20588051 211.67048033 -16.05642848 211.68848744 -34.31880176 211.69168252 C-44.57127165 211.69384707 -54.82364345 211.7025879 -65.07608414 211.72814369 C-73.80718468 211.7498572 -82.5381633 211.75789785 -91.26928778 211.74817691 C-95.72231655 211.74363423 -100.17509378 211.74551664 -104.628088 211.76493835 C-108.70940679 211.78258495 -112.79029081 211.78156034 -116.87161432 211.76604106 C-118.34339235 211.76366726 -119.8152006 211.76797671 -121.28693248 211.77986971 C-134.32009745 211.87861626 -143.75307158 209.84650355 -153.25952148 200.6418457 C-160.1159355 193.14186936 -162.9599925 185.37883385 -162.73608398 175.17700195 C-161.73353157 165.86579642 -157.41318488 157.82948059 -150.54077148 151.5559082 C-142.1704452 144.85964718 -134.51213165 143.83371019 -124.06806946 143.90284729 C-122.83561263 143.89902273 -121.6031558 143.89519816 -120.33335179 143.8912577 C-116.92902588 143.88360058 -113.52519828 143.88925906 -110.12091434 143.90055454 C-106.44333937 143.90943232 -102.76580038 143.90089766 -99.08822632 143.89434814 C-92.72099266 143.88520454 -86.35383113 143.88651035 -79.98659706 143.89453316 C-70.77527412 143.90577464 -61.56405374 143.89671541 -52.35273971 143.88197135 C-37.39971235 143.85821557 -22.44669766 143.84483612 -7.49365234 143.84082031 C-6.59931286 143.84057544 -5.70497338 143.84033058 -4.7835327 143.84007829 C5.20005722 143.83753098 15.18364617 143.8369664 25.16723633 143.8380127 C28.7906901 143.83834575 32.41414387 143.83863113 36.03759766 143.83886719 C36.93175452 143.83892998 37.82591139 143.83899276 38.74716391 143.83905745 C53.6489425 143.83966195 68.55066254 143.82479669 83.45241672 143.79803413 C92.64280318 143.78221767 101.83300081 143.7799828 111.02338932 143.79516815 C117.31634266 143.80461961 123.60918195 143.799899 129.90212186 143.78395433 C133.5342058 143.77524343 137.16598692 143.7731592 140.79805565 143.78848076 C144.73280482 143.80494719 148.66709874 143.79070907 152.60185242 143.77345276 C153.75300669 143.78325954 154.90416096 143.79306631 156.0901987 143.80317026 C162.22378245 143.78517239 162.22378245 143.78517239 167.74450397 141.36677456 C171.38085321 137.21391921 172.07438018 133.89563711 171.96704102 128.46606445 C171.33302195 124.9092175 169.38704764 123.36629104 166.57641602 121.2746582 C163.72507225 120.32421028 161.96787496 120.14811577 159.01178646 120.14437294 C157.59912672 120.13893642 157.59912672 120.13893642 156.15792841 120.13339007 C154.60308492 120.13499245 154.60308492 120.13499245 153.01683044 120.1366272 C151.91720272 120.13380592 150.81757499 120.13098464 149.68462521 120.12807786 C145.98114935 120.11971078 142.2777033 120.11839183 138.57421875 120.11694336 C135.92680657 120.11227683 133.27939845 120.10720033 130.63198853 120.10154724 C124.92221173 120.09001831 119.21243789 120.08177589 113.50265312 120.07542801 C104.48311791 120.06511016 95.46361963 120.04454988 86.44410706 120.02230835 C83.35982049 120.01482868 80.27553376 120.00741499 77.19124699 120.00002098 C76.42046228 119.99817041 75.64967757 119.99631985 74.85553576 119.9944132 C66.08061466 119.97348389 57.3056895 119.9546554 48.53076172 119.93676758 C47.72850747 119.9351294 46.92625322 119.93349121 46.09968824 119.93180339 C33.08735167 119.90549585 20.07501226 119.88686454 7.06266033 119.87017567 C-6.28744434 119.85277655 -19.63749306 119.82395652 -32.98755306 119.78528631 C-41.22788294 119.761846 -49.46812163 119.74788814 -57.70848512 119.74595867 C-63.35063218 119.74385497 -68.99268836 119.73097365 -74.63479466 119.70947935 C-77.89378127 119.69740997 -81.15255003 119.69194607 -84.41156197 119.69619179 C-87.93823592 119.70005396 -91.46436896 119.68573777 -94.99098206 119.66665649 C-96.02977511 119.67218619 -97.06856815 119.67771589 -98.13883978 119.68341315 C-99.5475879 119.67015338 -99.5475879 119.67015338 -100.98479557 119.65662575 C-101.79956806 119.65526922 -102.61434055 119.65391269 -103.45380312 119.65251505 C-104.10383081 119.52782229 -104.75385849 119.40312953 -105.42358398 119.2746582 C-109.54367575 113.09452056 -108.99485924 105.46600558 -108.42358398 98.2746582 C-106.49794783 89.21896385 -100.49517378 81.80694758 -92.97827148 76.5715332 C-88.13620573 73.79094099 -83.92433604 72.1523958 -78.30102539 72.14868164 C-77.49984283 72.14487488 -76.69866028 72.14106812 -75.87319946 72.137146 C-74.58716324 72.13560516 -74.58716324 72.13560516 -73.27514648 72.1340332 C-71.447009 72.11570819 -69.61888364 72.09613816 -67.79077148 72.07543945 C-64.91816643 72.04646788 -62.0463447 72.02465782 -59.17358398 72.02416992 C-56.39423679 72.02082936 -53.6166816 71.98625208 -50.83764648 71.9465332 C-49.55768295 71.95713776 -49.55768295 71.95713776 -48.25186157 71.96795654 C-44.01975612 71.88192205 -41.25239844 71.57336188 -37.89208984 68.87084961 C-34.7566558 65.5732326 -34.45369046 63.90392697 -34.25170898 59.5324707 C-34.5729887 55.31202359 -36.47145458 51.9646879 -38.51733398 48.33325195 C-42.52834616 40.55475334 -42.83091358 32.36499928 -40.50561523 23.9543457 C-36.46758529 13.52603537 -30.6615843 6.95861585 -20.42358398 2.2746582 C-13.56071407 0.12904963 -7.15843456 -0.01549342 0 0 Z " fill="#FBFDCE" transform="translate(226.423583984375,165.725341796875)"/>
<path d="M0 0 C21.12 0 42.24 0 64 0 C61.84353514 25.87757835 61.84353514 25.87757835 60.45556641 34.08105469 C59.57396913 39.72970261 59.17457455 45.43132972 58.6875 51.125 C57.49154155 64.6097756 56.01497553 78.0548757 54.4375 91.5 C54.33158539 92.40461975 54.22567078 93.3092395 54.11654663 94.24127197 C52.79542953 105.50103413 51.40623826 116.75009393 50 128 C33.5 128 17 128 0 128 C0 85.76 0 43.52 0 0 Z " fill="#02CCBE" transform="translate(289,401)"/>
<path d="M0 0 C20.79 0 41.58 0 63 0 C63 41.91 63 83.82 63 127 C46.17 127 29.34 127 12 127 C11.505 119.575 11.505 119.575 11 112 C10.505 109.525 10.505 109.525 10 107 C9.7053888 103.42783916 9.49507907 99.85516232 9.28125 96.27734375 C9.1087897 93.19912646 9.1087897 93.19912646 8.5 91.06640625 C7.53806208 87.09089719 7.5939205 82.92015235 7.39453125 78.84375 C7.20956584 75.42507898 6.84181318 72.3057806 6 69 C5.66843951 66.175696 5.36852122 63.35744787 5.09765625 60.52734375 C5.01503036 59.69022354 4.93240448 58.85310333 4.84727478 57.99061584 C4.58287559 55.3065107 4.32252706 52.6220319 4.0625 49.9375 C3.80636176 47.31809198 3.54936016 44.69877076 3.2918396 42.07949829 C3.12035087 40.33266204 2.94980225 38.58573326 2.78018188 36.8387146 C2.35563448 32.49085773 1.91139034 28.14661304 1.42529297 23.80517578 C1.33243515 22.96604141 1.23957733 22.12690704 1.14390564 21.26234436 C0.969374 19.69755336 0.79055506 18.13323084 0.60621643 16.56956482 C-0.01846065 10.94280846 0 5.75677937 0 0 Z " fill="#01CEC1" transform="translate(202,402)"/>
<path d="M0 0 C20.79 0 41.58 0 63 0 C63.99 10.395 63.99 10.395 65 21 C65.43549899 24.61081309 65.88473472 28.21010051 66.375 31.8125 C67.99456672 44.26377088 69.21418565 56.74973282 70.43994141 69.24438477 C70.60962121 70.9728268 70.77938082 72.701261 70.94921875 74.4296875 C71.03403503 75.29297165 71.11885132 76.1562558 71.20623779 77.04570007 C71.82671347 83.32752488 72.47727069 89.60579376 73.14453125 95.8828125 C73.28428627 97.19821518 73.28428627 97.19821518 73.42686462 98.54019165 C73.87504343 102.74996329 74.32654538 106.95935924 74.78100586 111.16845703 C74.94258728 112.68000856 75.10412919 114.19156432 75.265625 115.703125 C75.3404158 116.38666046 75.4152066 117.07019592 75.49226379 117.77444458 C75.82299815 120.88351076 76 123.86581247 76 127 C59.5 127 43 127 26 127 C24.515 118.585 24.515 118.585 23 110 C22.34 108.35 21.68 106.7 21 105 C20.46990056 102.31064735 19.99204789 99.6421726 19.5625 96.9375 C18.54447718 90.84634102 17.33814415 84.87868764 15.74609375 78.90625 C14.73254853 74.95819953 13.86758111 70.98233952 13 67 C12.8033374 66.09830078 12.6066748 65.19660156 12.40405273 64.26757812 C11.55235368 60.35463695 10.70402074 56.44096837 9.85546875 52.52734375 C8.90528927 48.14952297 7.95120956 43.77304152 6.96875 39.40234375 C5.90662086 34.63662574 4.94826647 29.85198651 4 25.0625 C3.835 24.23298828 3.67 23.40347656 3.5 22.54882812 C3.16766877 20.8780848 2.83692961 19.20702397 2.5078125 17.53564453 C2.15918447 15.79485092 1.79919217 14.05630635 1.4296875 12.31982422 C1.24664062 11.44986816 1.06359375 10.57991211 0.875 9.68359375 C0.70742187 8.9042749 0.53984375 8.12495605 0.3671875 7.32202148 C0 5 0 5 0 0 Z " fill="#02CEC1" transform="translate(114,402)"/>
<path d="M0 0 C20.79 0 41.58 0 63 0 C61.87660057 12.3573937 61.87660057 12.3573937 60.765625 16.84765625 C60.52368408 17.85231934 60.28174316 18.85698242 60.0324707 19.89208984 C59.77425537 20.9383252 59.51604004 21.98456055 59.25 23.0625 C56.7899509 33.33537958 54.63783137 43.62899261 52.73730469 54.01977539 C51.63827684 59.95978196 50.33681268 65.79598716 48.83666992 71.64697266 C47.28292875 77.87372528 45.91068301 84.14227505 44.52050781 90.40722656 C44.00374915 92.7331253 43.48247745 95.05798185 42.9609375 97.3828125 C42.61951557 98.91660523 42.27836136 100.45045759 41.9375 101.984375 C41.78740479 102.65160583 41.63730957 103.31883667 41.48266602 104.00628662 C39.7972804 111.6427101 38.44381543 119.29965105 37 127 C20.5 127 4 127 -13 127 C-12.27827251 118.33927013 -11.54589804 109.68134246 -10.75268555 101.02709961 C-10.62574816 99.63241781 -10.5007524 98.23755796 -10.37768555 96.8425293 C-9.21985742 83.73530147 -9.21985742 83.73530147 -7.9921875 77.51953125 C-6.7301054 71.05519361 -6.25397619 64.5355968 -5.73822021 57.97958374 C-5.4350237 54.13254754 -5.11287245 50.28708297 -4.79296875 46.44140625 C-4.72829407 45.65888992 -4.66361938 44.8763736 -4.59698486 44.07014465 C-3.97675341 36.61022388 -3.28996645 29.15733465 -2.57003784 21.7064209 C-2.37903336 19.7292511 -2.19058766 17.75183465 -2.00219727 15.77441406 C-1.88545654 14.57397461 -1.76871582 13.37353516 -1.6484375 12.13671875 C-1.54708496 11.09217529 -1.44573242 10.04763184 -1.34130859 8.97143555 C-0.99626355 5.96747039 -0.49709596 2.98257579 0 0 Z " fill="#01CEC0" transform="translate(377,402)"/>
<path d="M0 0 C8.26957683 -0.95012159 13.49556233 0.8559676 20 6 C27.16566015 12.37496661 31.27097759 19.45555742 32.33984375 29.05078125 C32.60369361 37.35677469 30.81375464 43.83198834 26.75 51 C24.78413864 54.80268935 24.61606114 57.74882186 25.3125 61.94921875 C26.62710573 65.87062788 29.38651883 68.19325942 33 70 C34.94949037 70.11850671 36.90263985 70.17906532 38.85546875 70.2109375 C40.03560547 70.23929687 41.21574219 70.26765625 42.43164062 70.296875 C44.91587267 70.34854909 47.40026798 70.39293846 49.88476562 70.4296875 C56.33957486 70.59798236 61.3243738 70.83591427 67 74 C67.80566406 74.43699219 68.61132812 74.87398438 69.44140625 75.32421875 C78.52869334 81.16485079 83.40141194 88.48819744 86 99 C87.23770068 108.28970846 84.54431072 116.39740505 79.47265625 124.13671875 C77.03693046 127.21852565 74.1152047 129.62993072 71 132 C70.34 131.67 69.68 131.34 69 131 C69.28875 130.45214844 69.5775 129.90429688 69.875 129.33984375 C74.12102074 120.2728203 74.82404127 110.07706833 71.4375 100.5625 C67.19010124 91.59080156 60.28258933 85.38938903 51.0625 81.8828125 C44.48268874 80.09230416 37.27594185 80.71694678 30.515625 80.78515625 C23.98727141 80.68738137 19.91326696 80.27061502 15.171875 75.57910156 C12.24274724 71.6321019 12.40111462 66.68587345 13 62 C14.8125 59 14.8125 59 17 56 C21.79407131 46.5522695 21.1694351 35.16141824 18.4375 25.1875 C15.06996585 15.57943055 9.48463172 8.93633049 1.72265625 2.49609375 C1.15417969 2.00238281 0.58570313 1.50867188 0 1 C0 0.67 0 0.34 0 0 Z " fill="#FAFAF9" transform="translate(404,239)"/>
<path d="M0 0 C1.06383911 -0.00571014 2.12767822 -0.01142029 3.22375488 -0.01730347 C4.37558762 -0.01842133 5.52742035 -0.01953918 6.7141571 -0.02069092 C7.93928009 -0.02565582 9.16440308 -0.03062073 10.426651 -0.03573608 C13.77598267 -0.04780877 17.1252522 -0.05529321 20.47459817 -0.05974674 C22.57091998 -0.06268663 24.66723643 -0.0667931 26.76355553 -0.07125092 C33.33363547 -0.08490927 39.90370304 -0.09458445 46.47379619 -0.09845281 C54.03756244 -0.1029318 61.60114783 -0.12047921 69.16485912 -0.1494534 C75.02579784 -0.1711196 80.88668584 -0.18115969 86.74766415 -0.18249393 C90.2417013 -0.18353828 93.73556805 -0.18936699 97.22956276 -0.20731354 C101.13073602 -0.22696372 105.03168569 -0.2224856 108.9329071 -0.21600342 C110.65154716 -0.22982559 110.65154716 -0.22982559 112.40490723 -0.243927 C123.59831974 -0.18579224 132.03496693 2.68205133 140.5176239 10.14044189 C142.92803112 12.96102345 144.7878353 15.86354864 146.5176239 19.14044189 C147.02615906 20.09563721 147.02615906 20.09563721 147.54496765 21.07012939 C150.35921806 27.32113722 150.75987171 34.89252553 148.8379364 41.46466064 C148.0176239 43.39044189 148.0176239 43.39044189 146.5176239 46.14044189 C143.5476239 46.14044189 140.5776239 46.14044189 137.5176239 46.14044189 C137.37067078 44.65544189 137.37067078 44.65544189 137.2207489 43.14044189 C136.0800683 32.65521019 134.33537015 25.08219532 126.4394989 17.67559814 C117.68036808 10.67897536 108.08229002 9.84430695 97.2676239 9.89752197 C96.04889587 9.89562363 94.83016785 9.89372528 93.57450867 9.89176941 C90.24801949 9.88870909 86.92178102 9.89454694 83.59532166 9.90472245 C80.10458037 9.91354414 76.61384281 9.9117447 73.12309265 9.91136169 C67.26239272 9.91229661 61.40174473 9.92095683 55.5410614 9.93463135 C48.77742201 9.95035498 42.01383946 9.95562932 35.25018311 9.95489579 C28.03188652 9.95421884 20.81361166 9.96116823 13.59532166 9.9703424 C11.52303484 9.9724676 9.45075155 9.97318274 7.37846375 9.97358131 C3.5081636 9.97477805 -0.36208994 9.98451236 -4.2323761 9.99517822 C-5.37440491 9.99472504 -6.51643372 9.99427185 -7.69306946 9.99380493 C-13.06288138 10.01541707 -18.19315319 10.19083158 -23.4823761 11.14044189 C-16.96362931 2.70305686 -10.6921028 0.0345966 0 0 Z " fill="#FBFBFA" transform="translate(219.4823760986328,165.85955810546875)"/>
<path d="M0 0 C5.8699399 2.93496995 10.94797522 7.59243125 13.5703125 13.67578125 C15.53640338 21.21246297 15.4740949 28.78848244 11.640625 35.6640625 C7.6653688 41.37380549 2.83586154 44.89386385 -3.796875 47.1015625 C-10.51149573 47.74865361 -17.12217292 48.15492113 -22.796875 44.1015625 C-23.37953125 43.68777344 -23.9621875 43.27398437 -24.5625 42.84765625 C-29.10678917 39.34397111 -32.32484692 35.72124617 -33.796875 30.1015625 C-34.68000978 22.49493932 -35.21091437 15.05659954 -30.3515625 8.7421875 C-21.46075736 -0.64006918 -12.63042424 -4.72536851 0 0 Z " fill="#EF4646" transform="translate(286.796875,93.8984375)"/>
<path d="M0 0 C4.29 0 8.58 0 13 0 C13.10957031 1.2375 13.21914062 2.475 13.33203125 3.75 C14.18307373 13.12892924 15.1527285 22.47447668 16.375 31.8125 C17.9887541 44.2647155 19.21415947 56.74946597 20.43994141 69.24438477 C20.60962121 70.9728268 20.77938082 72.701261 20.94921875 74.4296875 C21.03403503 75.29297165 21.11885132 76.1562558 21.20623779 77.04570007 C21.82671347 83.32752488 22.47727069 89.60579376 23.14453125 95.8828125 C23.23770126 96.75974762 23.33087128 97.63668274 23.42686462 98.54019165 C23.87504343 102.74996329 24.32654538 106.95935924 24.78100586 111.16845703 C24.94258728 112.68000856 25.10412919 114.19156432 25.265625 115.703125 C25.3404158 116.38666046 25.4152066 117.07019592 25.49226379 117.77444458 C25.82299815 120.88351076 26 123.86581247 26 127 C24.02090602 127.02686553 22.04171029 127.04633375 20.0625 127.0625 C18.96035156 127.07410156 17.85820312 127.08570313 16.72265625 127.09765625 C14 127 14 127 13 126 C12.78560146 124.56230145 12.62947855 123.11578751 12.5 121.66796875 C12.4175 120.78689453 12.335 119.90582031 12.25 118.99804688 C12.1675 118.07056641 12.085 117.14308594 12 116.1875 C11.8361254 114.36823592 11.66955511 112.5492122 11.5 110.73046875 C11.4278125 109.91989014 11.355625 109.10931152 11.28125 108.27416992 C11.01362948 106.11020711 10.53917995 104.10923143 10 102 C9.69745146 99.22913466 9.43065865 96.46367552 9.1875 93.6875 C8.25221136 83.48804054 7.243923 73.296516 6.2081604 63.10684204 C6.02793836 61.32943295 5.84887866 59.55190561 5.67098999 57.77426147 C5.41762226 55.24374127 5.1604491 52.71363457 4.90234375 50.18359375 C4.82634949 49.41770935 4.75035522 48.65182495 4.67205811 47.86273193 C4.32362398 44.48620987 3.83190104 41.28414666 3 38 C2.718044 35.61018842 2.47127687 33.21614036 2.24609375 30.8203125 C2.18092056 30.12992889 2.11574738 29.43954529 2.04859924 28.72824097 C1.91182753 27.27095417 1.77660139 25.81352159 1.64282227 24.35595703 C1.43880801 22.13921234 1.22855243 19.92312311 1.01757812 17.70703125 C0.88504067 16.28649336 0.75286736 14.86592145 0.62109375 13.4453125 C0.5017749 12.16156738 0.38245605 10.87782227 0.25952148 9.55517578 C0.02754939 6.37739815 0 3.18623316 0 0 Z " fill="#F6F8F8" transform="translate(164,402)"/>
<path d="M0 0 C3.96 0 7.92 0 12 0 C12.1987976 6.16272567 11.83139221 12.11236553 11.10546875 18.23046875 C10.38735338 24.48132848 9.71121644 30.73332479 9.10546875 36.99609375 C9.03194183 37.75259216 8.95841492 38.50909058 8.88265991 39.28851318 C8.73009222 40.85826746 8.57761778 42.4280308 8.42523193 43.99780273 C6.89673834 59.68379656 5.20657256 75.34652555 3.375 91 C3.21878677 92.33633987 3.21878677 92.33633987 3.05941772 93.69967651 C1.75782868 104.80635524 0.40420333 115.9058253 -1 127 C-4.96 127 -8.92 127 -13 127 C-13.15418654 121.75765773 -13.08350547 116.92109462 -12.10546875 111.765625 C-10.82452342 104.38095257 -10.12889213 96.9701408 -9.42523193 89.51333618 C-7.75016111 71.80424662 -5.81358747 54.1306374 -3.75073242 36.46289062 C-2.3394885 24.32212656 -1.1156596 12.17146153 0 0 Z " fill="#F8FAFA" transform="translate(340,402)"/>
<path d="M0 0 C3.96 0 7.92 0 12 0 C12 41.91 12 83.82 12 127 C8.04 127 4.08 127 0 127 C0 85.09 0 43.18 0 0 Z " fill="#F2F4F4" transform="translate(253,402)"/>
<path d="M0 0 C2.83203125 0.03255208 5.6640625 0.06510417 8.49609375 0.09765625 C8.00768937 8.02836661 6.64746703 15.45618328 4.74609375 23.16015625 C2.28604465 33.43303583 0.13392512 43.72664886 -1.76660156 54.11743164 C-2.86562941 60.05743821 -4.16709357 65.89364341 -5.66723633 71.74462891 C-7.2209775 77.97138153 -8.59322324 84.2399313 -9.98339844 90.50488281 C-10.5001571 92.83078155 -11.0214288 95.1556381 -11.54296875 97.48046875 C-13.73741693 107.318027 -15.71459425 117.17849672 -17.50390625 127.09765625 C-21.13390625 127.09765625 -24.76390625 127.09765625 -28.50390625 127.09765625 C-27.84483716 120.97469185 -26.68651182 115.09740566 -25.31640625 109.09765625 C-23.12933054 99.32256869 -21.24491864 89.5110535 -19.44140625 79.66015625 C-17.75526886 70.4595205 -15.92514683 61.3869544 -13.50390625 52.34765625 C-11.69027288 45.09312275 -10.58467449 37.66066346 -9.34155273 30.29199219 C-8.20711801 23.65674292 -6.85889607 17.15676505 -5.13549805 10.64819336 C-4.57764952 8.39545135 -4.17555812 6.20928088 -3.87890625 3.91015625 C-3.37510332 0.13163429 -3.37510332 0.13163429 0 0 Z " fill="#F6FAF9" transform="translate(431.50390625,401.90234375)"/>
<path d="M0 0 C5.62562745 3.77036734 10.25864348 8.32480002 12 15 C13.13480874 23.33188524 12.63874091 29.92490279 7.80078125 36.93359375 C5.16025563 39.96361122 2.4420916 41.93474504 -1 44 C-1.66 43.67 -2.32 43.34 -3 43 C-2.505 42.05125 -2.01 41.1025 -1.5 40.125 C1.22542421 33.6439673 0.72387509 27.30361824 -1.5625 20.75 C-4.08435792 15.06240555 -7.74298421 11.69780611 -13.203125 8.8515625 C-16.91981099 7.71994582 -20.4706979 7.78573561 -24.3125 7.875 C-25.42334961 7.88853516 -25.42334961 7.88853516 -26.55664062 7.90234375 C-28.37123467 7.92575787 -30.18566071 7.96162385 -32 8 C-23.72920902 -3.15303632 -12.73688376 -6.36844188 0 0 Z " fill="#F9F6F6" transform="translate(289,95)"/>
</svg>